<svg xmlns="http://www.w3.org/2000/svg" xmlns:xlink="http://www.w3.org/1999/xlink" width="500" zoomAndPan="magnify" viewBox="0 0 375 374.999991" height="500" preserveAspectRatio="xMidYMid meet" version="1.0"><defs><g/><clipPath id="526ab59f77"><path d="M 71.402344 67 L 303.902344 67 L 303.902344 308 L 71.402344 308 Z M 71.402344 67 " clip-rule="nonzero"/></clipPath></defs><rect x="-37.5" width="450" fill="#ffffff" y="-37.499999" height="449.999989" fill-opacity="1"/><rect x="-37.5" width="450" fill="#ffcc00" y="-37.499999" height="449.999989" fill-opacity="1"/><g clip-path="url(#526ab59f77)"><path fill="#000000" d="M 158.308594 71.324219 C 160.191406 70.851562 162.082031 70.425781 163.984375 70.046875 C 165.882812 69.667969 167.792969 69.332031 169.710938 69.046875 C 171.628906 68.757812 173.554688 68.519531 175.484375 68.324219 C 177.414062 68.132812 179.34375 67.984375 181.28125 67.886719 C 183.21875 67.785156 185.15625 67.734375 187.09375 67.726562 C 189.035156 67.722656 190.972656 67.761719 192.910156 67.851562 C 194.847656 67.941406 196.78125 68.074219 198.710938 68.257812 C 200.640625 68.441406 202.566406 68.671875 204.488281 68.945312 C 206.40625 69.222656 208.316406 69.546875 210.222656 69.914062 C 212.125 70.285156 214.019531 70.699219 215.902344 71.160156 C 217.785156 71.621094 219.65625 72.128906 221.515625 72.679688 C 223.375 73.230469 225.21875 73.828125 227.050781 74.46875 C 228.878906 75.109375 230.691406 75.796875 232.488281 76.527344 C 234.285156 77.253906 236.0625 78.027344 237.824219 78.84375 C 239.582031 79.660156 241.320312 80.519531 243.039062 81.417969 C 244.753906 82.320312 246.449219 83.261719 248.121094 84.246094 C 249.792969 85.226562 251.4375 86.25 253.0625 87.3125 C 254.683594 88.375 256.277344 89.476562 257.847656 90.617188 C 259.414062 91.757812 260.953125 92.9375 262.464844 94.152344 C 263.976562 95.367188 265.457031 96.617188 266.910156 97.90625 C 268.359375 99.191406 269.777344 100.515625 271.164062 101.871094 C 272.550781 103.226562 273.902344 104.613281 275.21875 106.035156 C 276.539062 107.457031 277.824219 108.910156 279.070312 110.394531 C 280.320312 111.878906 281.53125 113.394531 282.703125 114.9375 C 283.878906 116.480469 285.015625 118.050781 286.113281 119.648438 C 287.210938 121.246094 288.269531 122.871094 289.289062 124.519531 C 290.308594 126.167969 291.289062 127.84375 292.226562 129.539062 C 293.164062 131.238281 294.058594 132.957031 294.914062 134.695312 C 295.769531 136.4375 296.582031 138.199219 297.347656 139.976562 C 298.117188 141.757812 298.84375 143.554688 299.523438 145.371094 C 300.207031 147.1875 300.84375 149.019531 301.4375 150.863281 C 302.027344 152.710938 302.578125 154.570312 303.078125 156.445312 C 303.265625 157.132812 303.445312 157.839844 303.625 158.558594 L 301.792969 159.195312 C 301.605469 158.445312 301.414062 157.691406 301.214844 156.941406 C 300.714844 155.085938 300.171875 153.242188 299.585938 151.410156 C 299 149.582031 298.367188 147.765625 297.691406 145.96875 C 297.011719 144.167969 296.292969 142.386719 295.53125 140.625 C 294.765625 138.859375 293.960938 137.117188 293.109375 135.390625 C 292.261719 133.667969 291.371094 131.964844 290.4375 130.285156 C 289.507812 128.605469 288.53125 126.945312 287.519531 125.3125 C 286.507812 123.679688 285.453125 122.074219 284.359375 120.492188 C 283.269531 118.910156 282.136719 117.355469 280.96875 115.832031 C 279.800781 114.304688 278.597656 112.808594 277.355469 111.339844 C 276.113281 109.875 274.835938 108.4375 273.523438 107.035156 C 272.214844 105.628906 270.867188 104.257812 269.488281 102.917969 C 268.109375 101.582031 266.699219 100.277344 265.253906 99.007812 C 263.8125 97.738281 262.339844 96.503906 260.835938 95.304688 C 259.332031 94.109375 257.800781 92.949219 256.242188 91.824219 C 254.679688 90.703125 253.09375 89.621094 251.480469 88.574219 C 249.867188 87.53125 248.230469 86.523438 246.566406 85.5625 C 244.90625 84.597656 243.222656 83.671875 241.511719 82.789062 C 239.804688 81.910156 238.078125 81.070312 236.328125 80.269531 C 234.582031 79.472656 232.8125 78.71875 231.027344 78.007812 C 229.242188 77.296875 227.441406 76.628906 225.621094 76.007812 C 223.804688 75.386719 221.972656 74.808594 220.125 74.273438 C 218.277344 73.742188 216.417969 73.253906 214.546875 72.8125 C 212.679688 72.371094 210.796875 71.972656 208.910156 71.625 C 207.019531 71.273438 205.121094 70.96875 203.214844 70.714844 C 201.3125 70.457031 199.402344 70.246094 197.488281 70.082031 C 195.570312 69.917969 193.652344 69.800781 191.734375 69.734375 C 189.8125 69.664062 187.890625 69.640625 185.96875 69.664062 C 184.046875 69.6875 182.128906 69.761719 180.210938 69.878906 C 178.292969 69.996094 176.378906 70.164062 174.464844 70.375 C 172.554688 70.585938 170.652344 70.847656 168.753906 71.152344 C 166.859375 71.457031 164.96875 71.808594 163.089844 72.207031 C 161.207031 72.605469 159.339844 73.046875 157.480469 73.539062 C 157.769531 72.808594 158.050781 72.074219 158.308594 71.328125 Z M 73.230469 216.058594 C 73.386719 216.675781 73.542969 217.285156 73.707031 217.902344 C 74.207031 219.765625 74.75 221.613281 75.339844 223.445312 C 75.929688 225.28125 76.5625 227.097656 77.242188 228.902344 C 77.921875 230.707031 78.644531 232.492188 79.410156 234.257812 C 80.175781 236.027344 80.984375 237.773438 81.839844 239.503906 C 82.691406 241.230469 83.585938 242.9375 84.519531 244.621094 C 85.457031 246.304688 86.433594 247.964844 87.449219 249.601562 C 88.46875 251.238281 89.523438 252.847656 90.621094 254.433594 C 91.714844 256.019531 92.851562 257.574219 94.023438 259.105469 C 95.195312 260.632812 96.40625 262.132812 97.652344 263.601562 C 98.898438 265.070312 100.179688 266.507812 101.496094 267.914062 C 102.816406 269.320312 104.164062 270.695312 105.550781 272.035156 C 106.933594 273.375 108.351562 274.679688 109.800781 275.949219 C 111.246094 277.222656 112.726562 278.457031 114.234375 279.652344 C 115.746094 280.851562 117.28125 282.011719 118.847656 283.136719 C 120.414062 284.257812 122.007812 285.339844 123.625 286.386719 C 125.246094 287.429688 126.886719 288.433594 128.554688 289.398438 C 130.226562 290.363281 131.917969 291.285156 133.628906 292.164062 C 135.34375 293.046875 137.078125 293.882812 138.832031 294.679688 C 140.585938 295.476562 142.359375 296.226562 144.152344 296.9375 C 145.945312 297.644531 147.753906 298.308594 149.578125 298.929688 C 151.402344 299.550781 153.238281 300.125 155.09375 300.652344 C 156.945312 301.183594 158.808594 301.667969 160.683594 302.105469 C 162.5625 302.542969 164.449219 302.933594 166.34375 303.28125 C 168.238281 303.625 170.140625 303.925781 172.050781 304.175781 C 173.960938 304.429688 175.878906 304.636719 177.796875 304.792969 C 179.71875 304.953125 181.640625 305.0625 183.566406 305.125 C 185.492188 305.191406 187.417969 305.207031 189.34375 305.175781 C 191.273438 305.144531 193.195312 305.066406 195.117188 304.941406 C 197.042969 304.816406 198.960938 304.644531 200.875 304.425781 C 202.789062 304.207031 204.695312 303.9375 206.597656 303.625 C 208.5 303.3125 210.390625 302.953125 212.273438 302.546875 C 214.160156 302.140625 216.03125 301.691406 217.890625 301.191406 C 217.589844 301.921875 217.300781 302.660156 217.03125 303.40625 C 215.148438 303.886719 213.253906 304.320312 211.351562 304.707031 C 209.445312 305.09375 207.53125 305.433594 205.609375 305.730469 C 203.691406 306.023438 201.761719 306.269531 199.828125 306.472656 C 197.894531 306.671875 195.960938 306.824219 194.019531 306.929688 C 192.078125 307.039062 190.136719 307.097656 188.191406 307.109375 C 186.25 307.121094 184.304688 307.082031 182.363281 307 C 180.421875 306.917969 178.484375 306.789062 176.546875 306.609375 C 174.613281 306.433594 172.683594 306.207031 170.757812 305.9375 C 168.832031 305.664062 166.917969 305.347656 165.007812 304.980469 C 163.097656 304.617188 161.199219 304.207031 159.308594 303.75 C 157.421875 303.292969 155.542969 302.789062 153.679688 302.238281 C 151.816406 301.691406 149.964844 301.097656 148.128906 300.457031 C 146.292969 299.820312 144.476562 299.136719 142.671875 298.410156 C 140.871094 297.679688 139.085938 296.910156 137.320312 296.097656 C 135.558594 295.28125 133.8125 294.425781 132.089844 293.527344 C 130.367188 292.625 128.667969 291.6875 126.988281 290.703125 C 125.3125 289.722656 123.660156 288.699219 122.03125 287.636719 C 120.40625 286.574219 118.804688 285.472656 117.230469 284.332031 C 115.65625 283.191406 114.109375 282.015625 112.59375 280.796875 C 111.078125 279.582031 109.59375 278.332031 108.136719 277.042969 C 106.679688 275.753906 105.257812 274.433594 103.867188 273.074219 C 102.476562 271.71875 101.117188 270.328125 99.792969 268.902344 C 98.472656 267.480469 97.183594 266.023438 95.929688 264.539062 C 94.679688 263.054688 93.460938 261.535156 92.285156 259.992188 C 91.105469 258.445312 89.964844 256.875 88.863281 255.273438 C 87.761719 253.671875 86.699219 252.042969 85.675781 250.390625 C 84.652344 248.738281 83.671875 247.0625 82.730469 245.363281 C 81.789062 243.660156 80.890625 241.9375 80.03125 240.195312 C 79.175781 238.449219 78.359375 236.6875 77.589844 234.902344 C 76.816406 233.117188 76.089844 231.316406 75.40625 229.496094 C 74.722656 227.675781 74.082031 225.84375 73.488281 223.992188 C 72.894531 222.140625 72.347656 220.277344 71.84375 218.402344 C 71.691406 217.835938 71.546875 217.265625 71.402344 216.699219 Z M 73.230469 216.058594 " fill-opacity="1" fill-rule="evenodd"/></g><g fill="#000000" fill-opacity="1"><g transform="translate(62.800629, 196.898989)"><g><path d="M 13.96875 -18.53125 L 13.96875 -15 L 6.046875 -15 L 6.046875 -10.796875 L 12.90625 -10.796875 L 12.90625 -7.28125 L 6.046875 -7.28125 L 6.046875 0 L 2.390625 0 L 2.390625 -18.53125 Z M 13.96875 -18.53125 "/></g></g></g><g fill="#000000" fill-opacity="1"><g transform="translate(77.899939, 196.898989)"><g><path d="M 15.03125 -18.53125 L 15.03125 -15 L 6.046875 -15 L 6.046875 -11.046875 L 14 -11.046875 L 14 -7.53125 L 6.046875 -7.53125 L 6.046875 -3.53125 L 15.375 -3.53125 L 15.375 0 L 2.390625 0 L 2.390625 -18.53125 Z M 15.03125 -18.53125 "/></g></g></g><g fill="#000000" fill-opacity="1"><g transform="translate(94.660169, 196.898989)"><g><path d="M 15.03125 -18.53125 L 15.03125 -15 L 6.046875 -15 L 6.046875 -11.046875 L 14 -11.046875 L 14 -7.53125 L 6.046875 -7.53125 L 6.046875 -3.53125 L 15.375 -3.53125 L 15.375 0 L 2.390625 0 L 2.390625 -18.53125 Z M 15.03125 -18.53125 "/></g></g></g><g fill="#000000" fill-opacity="1"><g transform="translate(111.420398, 196.898989)"><g><path d="M 6.046875 -18.53125 L 6.046875 -3.53125 L 14.75 -3.53125 L 14.75 0 L 2.390625 0 L 2.390625 -18.53125 Z M 6.046875 -18.53125 "/></g></g></g><g fill="#000000" fill-opacity="1"><g transform="translate(127.551489, 196.898989)"><g><path d="M 6.046875 -18.53125 L 6.046875 0 L 2.390625 0 L 2.390625 -18.53125 Z M 6.046875 -18.53125 "/></g></g></g><g fill="#000000" fill-opacity="1"><g transform="translate(135.981932, 196.898989)"><g><path d="M 19.078125 -18.53125 L 19.078125 0.75 L 18.984375 0.75 L 6.015625 -10.953125 L 6.09375 0 L 2.390625 0 L 2.390625 -19.25 L 2.546875 -19.25 L 15.484375 -7.375 L 15.40625 -18.53125 Z M 19.078125 -18.53125 "/></g></g></g><g fill="#000000" fill-opacity="1"><g transform="translate(157.44811, 196.898989)"><g><path d="M 17.421875 -1.859375 C 17.128906 -1.554688 16.617188 -1.238281 15.890625 -0.90625 C 15.160156 -0.582031 14.351562 -0.316406 13.46875 -0.109375 C 12.59375 0.0976562 11.796875 0.203125 11.078125 0.203125 C 9.109375 0.203125 7.378906 -0.175781 5.890625 -0.9375 C 4.410156 -1.707031 3.269531 -2.765625 2.46875 -4.109375 C 1.664062 -5.460938 1.265625 -7.003906 1.265625 -8.734375 C 1.265625 -10.898438 1.691406 -12.734375 2.546875 -14.234375 C 3.398438 -15.734375 4.546875 -16.859375 5.984375 -17.609375 C 7.429688 -18.359375 9.03125 -18.734375 10.78125 -18.734375 C 11.894531 -18.734375 12.945312 -18.601562 13.9375 -18.34375 C 14.9375 -18.09375 15.8125 -17.769531 16.5625 -17.375 L 15.375 -13.96875 C 14.894531 -14.238281 14.226562 -14.484375 13.375 -14.703125 C 12.53125 -14.929688 11.820312 -15.046875 11.25 -15.046875 C 9.238281 -15.046875 7.695312 -14.539062 6.625 -13.53125 C 5.5625 -12.53125 5.03125 -11.039062 5.03125 -9.0625 C 5.03125 -7.914062 5.289062 -6.921875 5.8125 -6.078125 C 6.332031 -5.234375 7.054688 -4.582031 7.984375 -4.125 C 8.921875 -3.675781 9.984375 -3.453125 11.171875 -3.453125 C 12.316406 -3.453125 13.164062 -3.609375 13.71875 -3.921875 L 13.71875 -6.171875 L 10.515625 -6.171875 L 10.515625 -9.6875 L 17.421875 -9.6875 Z M 17.421875 -1.859375 "/></g></g></g><g fill="#000000" fill-opacity="1"><g transform="translate(176.624228, 196.898989)"><g/></g></g><g fill="#000000" fill-opacity="1"><g transform="translate(184.803022, 196.898989)"><g><path d="M 13.765625 0 L 12.40625 -1.8125 C 11.851562 -1.15625 11.15625 -0.640625 10.3125 -0.265625 C 9.476562 0.109375 8.488281 0.296875 7.34375 0.296875 C 6.1875 0.296875 5.132812 0.0546875 4.1875 -0.421875 C 3.238281 -0.910156 2.488281 -1.585938 1.9375 -2.453125 C 1.394531 -3.316406 1.125 -4.296875 1.125 -5.390625 C 1.125 -6.628906 1.554688 -7.75 2.421875 -8.75 C 3.285156 -9.75 4.363281 -10.46875 5.65625 -10.90625 L 5.609375 -10.96875 C 5.222656 -11.476562 4.863281 -12.082031 4.53125 -12.78125 C 4.207031 -13.488281 4.046875 -14.1875 4.046875 -14.875 C 4.046875 -15.582031 4.226562 -16.265625 4.59375 -16.921875 C 4.957031 -17.585938 5.503906 -18.132812 6.234375 -18.5625 C 6.960938 -18.988281 7.835938 -19.203125 8.859375 -19.203125 C 9.984375 -19.203125 11.003906 -18.972656 11.921875 -18.515625 C 12.835938 -18.054688 13.585938 -17.457031 14.171875 -16.71875 L 12.328125 -14.265625 C 11.765625 -14.867188 11.25 -15.332031 10.78125 -15.65625 C 10.320312 -15.976562 9.875 -16.140625 9.4375 -16.140625 C 8.90625 -16.140625 8.503906 -15.984375 8.234375 -15.671875 C 7.960938 -15.359375 7.828125 -14.976562 7.828125 -14.53125 C 7.828125 -14.050781 8.113281 -13.382812 8.6875 -12.53125 L 12.03125 -8.03125 L 13.296875 -11.28125 L 16.609375 -11.28125 L 14.171875 -5.140625 L 18 0 Z M 7.859375 -2.96875 C 9.066406 -2.96875 9.953125 -3.429688 10.515625 -4.359375 L 7.5 -8.40625 C 6.757812 -8.34375 6.140625 -8.03125 5.640625 -7.46875 C 5.148438 -6.914062 4.90625 -6.289062 4.90625 -5.59375 C 4.90625 -4.820312 5.1875 -4.191406 5.75 -3.703125 C 6.3125 -3.210938 7.015625 -2.96875 7.859375 -2.96875 Z M 7.859375 -2.96875 "/></g></g></g><g fill="#000000" fill-opacity="1"><g transform="translate(203.425506, 196.898989)"><g/></g></g><g fill="#000000" fill-opacity="1"><g transform="translate(211.6043, 196.898989)"><g><path d="M 16.28125 -1.53125 C 15.8125 -1.144531 15.066406 -0.757812 14.046875 -0.375 C 13.023438 0.0078125 11.910156 0.203125 10.703125 0.203125 C 8.765625 0.203125 7.082031 -0.210938 5.65625 -1.046875 C 4.238281 -1.890625 3.148438 -3.019531 2.390625 -4.4375 C 1.640625 -5.851562 1.265625 -7.410156 1.265625 -9.109375 C 1.265625 -10.972656 1.640625 -12.632812 2.390625 -14.09375 C 3.148438 -15.550781 4.207031 -16.6875 5.5625 -17.5 C 6.925781 -18.320312 8.492188 -18.734375 10.265625 -18.734375 C 11.390625 -18.734375 12.429688 -18.582031 13.390625 -18.28125 C 14.347656 -17.976562 15.1875 -17.597656 15.90625 -17.140625 L 14.46875 -13.6875 C 13.144531 -14.695312 11.785156 -15.203125 10.390625 -15.203125 C 9.453125 -15.203125 8.570312 -14.941406 7.75 -14.421875 C 6.925781 -13.898438 6.269531 -13.191406 5.78125 -12.296875 C 5.300781 -11.398438 5.0625 -10.40625 5.0625 -9.3125 C 5.0625 -8.125 5.285156 -7.078125 5.734375 -6.171875 C 6.191406 -5.273438 6.835938 -4.578125 7.671875 -4.078125 C 8.515625 -3.578125 9.5 -3.328125 10.625 -3.328125 C 11.53125 -3.328125 12.34375 -3.472656 13.0625 -3.765625 C 13.78125 -4.054688 14.351562 -4.40625 14.78125 -4.8125 Z M 16.28125 -1.53125 "/></g></g></g><g fill="#000000" fill-opacity="1"><g transform="translate(229.144663, 196.898989)"><g><path d="M 12.390625 0 L 8.484375 -5.890625 L 6.046875 -5.890625 L 6.046875 0 L 2.390625 0 L 2.390625 -18.53125 L 8 -18.53125 C 10.300781 -18.53125 12.082031 -17.96875 13.34375 -16.84375 C 14.613281 -15.726562 15.25 -14.207031 15.25 -12.28125 C 15.25 -11.144531 15.007812 -10.078125 14.53125 -9.078125 C 14.050781 -8.078125 13.316406 -7.289062 12.328125 -6.71875 L 16.640625 0 Z M 6.046875 -9.421875 L 8.640625 -9.421875 C 9.628906 -9.421875 10.347656 -9.707031 10.796875 -10.28125 C 11.253906 -10.863281 11.484375 -11.488281 11.484375 -12.15625 C 11.484375 -12.832031 11.289062 -13.472656 10.90625 -14.078125 C 10.519531 -14.691406 9.769531 -15 8.65625 -15 L 6.046875 -15 Z M 6.046875 -9.421875 "/></g></g></g><g fill="#000000" fill-opacity="1"><g transform="translate(246.408202, 196.898989)"><g><path d="M 15.03125 -18.53125 L 15.03125 -15 L 6.046875 -15 L 6.046875 -11.046875 L 14 -11.046875 L 14 -7.53125 L 6.046875 -7.53125 L 6.046875 -3.53125 L 15.375 -3.53125 L 15.375 0 L 2.390625 0 L 2.390625 -18.53125 Z M 15.03125 -18.53125 "/></g></g></g><g fill="#000000" fill-opacity="1"><g transform="translate(263.168431, 196.898989)"><g><path d="M 11.546875 -3.625 L 5.40625 -3.625 L 3.90625 0 L 0.296875 0 L 8.65625 -19.25 L 8.859375 -19.25 L 17.21875 0 L 12.984375 0 Z M 10.34375 -6.703125 L 8.5625 -11.203125 L 6.703125 -6.703125 Z M 10.34375 -6.703125 "/></g></g></g><g fill="#000000" fill-opacity="1"><g transform="translate(280.683642, 196.898989)"><g><path d="M 13.625 -18.53125 L 13.625 -15 L 9.109375 -15 L 9.109375 0 L 5.46875 0 L 5.46875 -15 L 1.125 -15 L 1.125 -18.53125 Z M 13.625 -18.53125 "/></g></g></g><g fill="#000000" fill-opacity="1"><g transform="translate(295.430638, 196.898989)"><g><path d="M 15.03125 -18.53125 L 15.03125 -15 L 6.046875 -15 L 6.046875 -11.046875 L 14 -11.046875 L 14 -7.53125 L 6.046875 -7.53125 L 6.046875 -3.53125 L 15.375 -3.53125 L 15.375 0 L 2.390625 0 L 2.390625 -18.53125 Z M 15.03125 -18.53125 "/></g></g></g><g fill="#000000" fill-opacity="1"><g transform="translate(101.02657, 163.273114)"><g><path d="M 5.484375 -1.984375 L 2.421875 -1.984375 L 1.609375 0 L 0.28125 0 L 4 -8.765625 L 4.078125 -8.765625 L 7.8125 0 L 6.25 0 Z M 5.03125 -3.140625 L 3.984375 -5.796875 L 2.890625 -3.140625 Z M 5.03125 -3.140625 "/></g></g></g><g fill="#000000" fill-opacity="1"><g transform="translate(113.73867, 163.273114)"><g><path d="M 7.84375 -0.78125 C 7.613281 -0.5625 7.210938 -0.359375 6.640625 -0.171875 C 6.066406 0.00390625 5.539062 0.09375 5.0625 0.09375 C 4.175781 0.09375 3.394531 -0.0820312 2.71875 -0.4375 C 2.050781 -0.789062 1.535156 -1.273438 1.171875 -1.890625 C 0.816406 -2.515625 0.640625 -3.222656 0.640625 -4.015625 C 0.640625 -4.960938 0.832031 -5.773438 1.21875 -6.453125 C 1.601562 -7.128906 2.125 -7.640625 2.78125 -7.984375 C 3.445312 -8.335938 4.171875 -8.515625 4.953125 -8.515625 C 5.441406 -8.515625 5.90625 -8.457031 6.34375 -8.34375 C 6.78125 -8.226562 7.164062 -8.078125 7.5 -7.890625 L 7.046875 -6.65625 C 6.816406 -6.789062 6.507812 -6.90625 6.125 -7 C 5.75 -7.101562 5.421875 -7.15625 5.140625 -7.15625 C 4.171875 -7.15625 3.410156 -6.890625 2.859375 -6.359375 C 2.304688 -5.828125 2.03125 -5.082031 2.03125 -4.125 C 2.03125 -3.550781 2.15625 -3.046875 2.40625 -2.609375 C 2.664062 -2.179688 3.03125 -1.847656 3.5 -1.609375 C 3.96875 -1.367188 4.5 -1.25 5.09375 -1.25 C 5.363281 -1.25 5.625 -1.273438 5.875 -1.328125 C 6.125 -1.378906 6.332031 -1.445312 6.5 -1.53125 L 6.5 -2.9375 L 4.921875 -2.9375 L 4.921875 -4.234375 L 7.84375 -4.234375 Z M 7.84375 -0.78125 "/></g></g></g><g fill="#000000" fill-opacity="1"><g transform="translate(127.110091, 163.273114)"><g><path d="M 6.734375 -8.421875 L 6.734375 -7.125 L 2.515625 -7.125 L 2.515625 -4.875 L 6.28125 -4.875 L 6.28125 -3.578125 L 2.515625 -3.578125 L 2.515625 -1.296875 L 6.90625 -1.296875 L 6.90625 0 L 1.15625 0 L 1.15625 -8.421875 Z M 6.734375 -8.421875 "/></g></g></g><g fill="#000000" fill-opacity="1"><g transform="translate(139.347945, 163.273114)"><g><path d="M 8.59375 -8.421875 L 8.59375 0.296875 L 8.5625 0.296875 L 2.484375 -5.578125 L 2.515625 0 L 1.15625 0 L 1.15625 -8.703125 L 1.21875 -8.703125 L 7.265625 -2.75 L 7.25 -8.421875 Z M 8.59375 -8.421875 "/></g></g></g><g fill="#000000" fill-opacity="1"><g transform="translate(153.737253, 163.273114)"><g><path d="M 7.40625 -0.65625 C 7.15625 -0.476562 6.8125 -0.304688 6.375 -0.140625 C 5.9375 0.015625 5.460938 0.09375 4.953125 0.09375 C 4.078125 0.09375 3.3125 -0.09375 2.65625 -0.46875 C 2.007812 -0.851562 1.507812 -1.367188 1.15625 -2.015625 C 0.8125 -2.660156 0.640625 -3.367188 0.640625 -4.140625 C 0.640625 -4.984375 0.8125 -5.734375 1.15625 -6.390625 C 1.507812 -7.054688 2 -7.578125 2.625 -7.953125 C 3.257812 -8.328125 3.976562 -8.515625 4.78125 -8.515625 C 5.269531 -8.515625 5.722656 -8.445312 6.140625 -8.3125 C 6.566406 -8.175781 6.941406 -8.007812 7.265625 -7.8125 L 6.734375 -6.5625 C 6.109375 -7 5.472656 -7.21875 4.828125 -7.21875 C 4.328125 -7.21875 3.863281 -7.082031 3.4375 -6.8125 C 3.007812 -6.550781 2.664062 -6.191406 2.40625 -5.734375 C 2.15625 -5.273438 2.03125 -4.769531 2.03125 -4.21875 C 2.03125 -3.644531 2.144531 -3.128906 2.375 -2.671875 C 2.613281 -2.210938 2.953125 -1.851562 3.390625 -1.59375 C 3.828125 -1.332031 4.332031 -1.203125 4.90625 -1.203125 C 5.3125 -1.203125 5.675781 -1.265625 6 -1.390625 C 6.332031 -1.515625 6.609375 -1.671875 6.828125 -1.859375 Z M 7.40625 -0.65625 "/></g></g></g><g fill="#000000" fill-opacity="1"><g transform="translate(166.403081, 163.273114)"><g><path d="M 6.734375 -8.421875 L 6.734375 -7.125 L 2.515625 -7.125 L 2.515625 -4.875 L 6.28125 -4.875 L 6.28125 -3.578125 L 2.515625 -3.578125 L 2.515625 -1.296875 L 6.90625 -1.296875 L 6.90625 0 L 1.15625 0 L 1.15625 -8.421875 Z M 6.734375 -8.421875 "/></g></g></g><g fill="#000000" fill-opacity="1"><g transform="translate(178.640936, 163.273114)"><g/></g></g><g fill="#000000" fill-opacity="1"><g transform="translate(186.969145, 163.273114)"><g><path d="M 1.15625 -8.421875 L 3.546875 -8.421875 C 4.609375 -8.421875 5.484375 -8.210938 6.171875 -7.796875 C 6.859375 -7.378906 7.359375 -6.84375 7.671875 -6.1875 C 7.992188 -5.53125 8.15625 -4.832031 8.15625 -4.09375 C 8.15625 -3.28125 7.960938 -2.5625 7.578125 -1.9375 C 7.191406 -1.3125 6.679688 -0.832031 6.046875 -0.5 C 5.410156 -0.164062 4.710938 0 3.953125 0 L 1.15625 0 Z M 3.71875 -1.296875 C 4.3125 -1.296875 4.835938 -1.40625 5.296875 -1.625 C 5.753906 -1.851562 6.113281 -2.179688 6.375 -2.609375 C 6.632812 -3.046875 6.765625 -3.570312 6.765625 -4.1875 C 6.765625 -4.851562 6.625 -5.40625 6.34375 -5.84375 C 6.0625 -6.289062 5.703125 -6.617188 5.265625 -6.828125 C 4.828125 -7.035156 4.378906 -7.140625 3.921875 -7.140625 L 2.515625 -7.140625 L 2.515625 -1.296875 Z M 3.71875 -1.296875 "/></g></g></g><g fill="#000000" fill-opacity="1"><g transform="translate(200.398401, 163.273114)"><g><path d="M 2.515625 -8.421875 L 2.515625 0 L 1.15625 0 L 1.15625 -8.421875 Z M 2.515625 -8.421875 "/></g></g></g><g fill="#000000" fill-opacity="1"><g transform="translate(208.691913, 163.273114)"><g><path d="M 7.84375 -0.78125 C 7.613281 -0.5625 7.210938 -0.359375 6.640625 -0.171875 C 6.066406 0.00390625 5.539062 0.09375 5.0625 0.09375 C 4.175781 0.09375 3.394531 -0.0820312 2.71875 -0.4375 C 2.050781 -0.789062 1.535156 -1.273438 1.171875 -1.890625 C 0.816406 -2.515625 0.640625 -3.222656 0.640625 -4.015625 C 0.640625 -4.960938 0.832031 -5.773438 1.21875 -6.453125 C 1.601562 -7.128906 2.125 -7.640625 2.78125 -7.984375 C 3.445312 -8.335938 4.171875 -8.515625 4.953125 -8.515625 C 5.441406 -8.515625 5.90625 -8.457031 6.34375 -8.34375 C 6.78125 -8.226562 7.164062 -8.078125 7.5 -7.890625 L 7.046875 -6.65625 C 6.816406 -6.789062 6.507812 -6.90625 6.125 -7 C 5.75 -7.101562 5.421875 -7.15625 5.140625 -7.15625 C 4.171875 -7.15625 3.410156 -6.890625 2.859375 -6.359375 C 2.304688 -5.828125 2.03125 -5.082031 2.03125 -4.125 C 2.03125 -3.550781 2.15625 -3.046875 2.40625 -2.609375 C 2.664062 -2.179688 3.03125 -1.847656 3.5 -1.609375 C 3.96875 -1.367188 4.5 -1.25 5.09375 -1.25 C 5.363281 -1.25 5.625 -1.273438 5.875 -1.328125 C 6.125 -1.378906 6.332031 -1.445312 6.5 -1.53125 L 6.5 -2.9375 L 4.921875 -2.9375 L 4.921875 -4.234375 L 7.84375 -4.234375 Z M 7.84375 -0.78125 "/></g></g></g><g fill="#000000" fill-opacity="1"><g transform="translate(222.063336, 163.273114)"><g><path d="M 2.515625 -8.421875 L 2.515625 0 L 1.15625 0 L 1.15625 -8.421875 Z M 2.515625 -8.421875 "/></g></g></g><g fill="#000000" fill-opacity="1"><g transform="translate(230.356848, 163.273114)"><g><path d="M 6.1875 -8.421875 L 6.1875 -7.125 L 4.015625 -7.125 L 4.015625 0 L 2.671875 0 L 2.671875 -7.125 L 0.5625 -7.125 L 0.5625 -8.421875 Z M 6.1875 -8.421875 "/></g></g></g><g fill="#000000" fill-opacity="1"><g transform="translate(241.727176, 163.273114)"><g><path d="M 5.484375 -1.984375 L 2.421875 -1.984375 L 1.609375 0 L 0.28125 0 L 4 -8.765625 L 4.078125 -8.765625 L 7.8125 0 L 6.25 0 Z M 5.03125 -3.140625 L 3.984375 -5.796875 L 2.890625 -3.140625 Z M 5.03125 -3.140625 "/></g></g></g><g fill="#000000" fill-opacity="1"><g transform="translate(254.43928, 163.273114)"><g><path d="M 2.515625 -8.421875 L 2.515625 -1.296875 L 6.65625 -1.296875 L 6.65625 0 L 1.15625 0 L 1.15625 -8.421875 Z M 2.515625 -8.421875 "/></g></g></g><g fill="#000000" fill-opacity="1"><g transform="translate(266.353263, 163.273114)"><g><path d="M 6.734375 -8.421875 L 6.734375 -7.125 L 2.515625 -7.125 L 2.515625 -4.875 L 6.28125 -4.875 L 6.28125 -3.578125 L 2.515625 -3.578125 L 2.515625 -1.296875 L 6.90625 -1.296875 L 6.90625 0 L 1.15625 0 L 1.15625 -8.421875 Z M 6.734375 -8.421875 "/></g></g></g><g fill="#000000" fill-opacity="1"><g transform="translate(100.362707, 219.180937)"><g><path d="M 4.34375 -4.578125 L 2.28125 0.21875 L 0.234375 -4.578125 L 1.109375 -4.578125 L 2.3125 -1.578125 L 3.46875 -4.578125 Z M 4.34375 -4.578125 "/></g></g></g><g fill="#000000" fill-opacity="1"><g transform="translate(107.446823, 219.180937)"><g><path d="M 0.34375 -2.28125 C 0.34375 -2.707031 0.445312 -3.097656 0.65625 -3.453125 C 0.863281 -3.816406 1.144531 -4.101562 1.5 -4.3125 C 1.863281 -4.53125 2.257812 -4.640625 2.6875 -4.640625 C 3.101562 -4.640625 3.488281 -4.53125 3.84375 -4.3125 C 4.207031 -4.101562 4.492188 -3.816406 4.703125 -3.453125 C 4.921875 -3.085938 5.03125 -2.695312 5.03125 -2.28125 C 5.03125 -1.863281 4.925781 -1.472656 4.71875 -1.109375 C 4.507812 -0.753906 4.222656 -0.472656 3.859375 -0.265625 C 3.492188 -0.0546875 3.101562 0.046875 2.6875 0.046875 C 2.257812 0.046875 1.863281 -0.0546875 1.5 -0.265625 C 1.144531 -0.472656 0.863281 -0.753906 0.65625 -1.109375 C 0.445312 -1.460938 0.34375 -1.851562 0.34375 -2.28125 Z M 1.109375 -2.28125 C 1.109375 -1.988281 1.175781 -1.71875 1.3125 -1.46875 C 1.457031 -1.21875 1.648438 -1.019531 1.890625 -0.875 C 2.140625 -0.726562 2.410156 -0.65625 2.703125 -0.65625 C 2.992188 -0.65625 3.257812 -0.726562 3.5 -0.875 C 3.738281 -1.019531 3.925781 -1.21875 4.0625 -1.46875 C 4.207031 -1.71875 4.28125 -1.988281 4.28125 -2.28125 C 4.28125 -2.582031 4.207031 -2.859375 4.0625 -3.109375 C 3.925781 -3.359375 3.734375 -3.554688 3.484375 -3.703125 C 3.242188 -3.847656 2.976562 -3.921875 2.6875 -3.921875 C 2.394531 -3.921875 2.128906 -3.847656 1.890625 -3.703125 C 1.648438 -3.554688 1.457031 -3.359375 1.3125 -3.109375 C 1.175781 -2.859375 1.109375 -2.582031 1.109375 -2.28125 Z M 1.109375 -2.28125 "/></g></g></g><g fill="#000000" fill-opacity="1"><g transform="translate(115.342528, 219.180937)"><g><path d="M 3.375 -4.578125 L 3.375 -3.875 L 2.1875 -3.875 L 2.1875 0 L 1.453125 0 L 1.453125 -3.875 L 0.296875 -3.875 L 0.296875 -4.578125 Z M 3.375 -4.578125 "/></g></g></g><g fill="#000000" fill-opacity="1"><g transform="translate(121.526969, 219.180937)"><g><path d="M 3.140625 0 L 2.109375 -1.59375 L 1.359375 -1.59375 L 1.359375 0 L 0.625 0 L 0.625 -4.578125 L 1.921875 -4.578125 C 2.429688 -4.578125 2.835938 -4.445312 3.140625 -4.1875 C 3.453125 -3.925781 3.609375 -3.566406 3.609375 -3.109375 C 3.609375 -2.828125 3.546875 -2.566406 3.421875 -2.328125 C 3.304688 -2.085938 3.125 -1.898438 2.875 -1.765625 L 3.984375 0 Z M 1.359375 -2.296875 L 2.015625 -2.296875 C 2.316406 -2.296875 2.53125 -2.375 2.65625 -2.53125 C 2.789062 -2.695312 2.859375 -2.878906 2.859375 -3.078125 C 2.859375 -3.203125 2.832031 -3.320312 2.78125 -3.4375 C 2.726562 -3.5625 2.640625 -3.664062 2.515625 -3.75 C 2.398438 -3.832031 2.242188 -3.875 2.046875 -3.875 L 1.359375 -3.875 Z M 1.359375 -2.296875 "/></g></g></g><g fill="#000000" fill-opacity="1"><g transform="translate(128.258761, 219.180937)"><g><path d="M 3.671875 -4.578125 L 3.671875 -3.875 L 1.359375 -3.875 L 1.359375 -2.65625 L 3.421875 -2.65625 L 3.421875 -1.953125 L 1.359375 -1.953125 L 1.359375 -0.703125 L 3.765625 -0.703125 L 3.765625 0 L 0.625 0 L 0.625 -4.578125 Z M 3.671875 -4.578125 "/></g></g></g><g fill="#000000" fill-opacity="1"><g transform="translate(134.915059, 219.180937)"><g/></g></g><g fill="#000000" fill-opacity="1"><g transform="translate(139.44486, 219.180937)"><g><path d="M 3.03125 -3.65625 C 2.632812 -3.851562 2.285156 -3.953125 1.984375 -3.953125 C 1.753906 -3.953125 1.570312 -3.898438 1.4375 -3.796875 C 1.3125 -3.703125 1.25 -3.566406 1.25 -3.390625 C 1.25 -3.222656 1.332031 -3.082031 1.5 -2.96875 C 1.664062 -2.851562 1.894531 -2.738281 2.1875 -2.625 C 2.414062 -2.539062 2.609375 -2.445312 2.765625 -2.34375 C 2.929688 -2.238281 3.066406 -2.097656 3.171875 -1.921875 C 3.273438 -1.742188 3.328125 -1.523438 3.328125 -1.265625 C 3.328125 -1.015625 3.265625 -0.789062 3.140625 -0.59375 C 3.023438 -0.394531 2.847656 -0.238281 2.609375 -0.125 C 2.378906 -0.0078125 2.109375 0.046875 1.796875 0.046875 C 1.523438 0.046875 1.253906 0.00390625 0.984375 -0.078125 C 0.710938 -0.160156 0.472656 -0.28125 0.265625 -0.4375 L 0.59375 -1 C 0.75 -0.882812 0.929688 -0.785156 1.140625 -0.703125 C 1.347656 -0.628906 1.546875 -0.59375 1.734375 -0.59375 C 1.953125 -0.59375 2.144531 -0.644531 2.3125 -0.75 C 2.476562 -0.863281 2.5625 -1.03125 2.5625 -1.25 C 2.5625 -1.425781 2.488281 -1.570312 2.34375 -1.6875 C 2.207031 -1.8125 2.015625 -1.921875 1.765625 -2.015625 C 1.503906 -2.109375 1.285156 -2.203125 1.109375 -2.296875 C 0.941406 -2.390625 0.796875 -2.519531 0.671875 -2.6875 C 0.546875 -2.863281 0.484375 -3.082031 0.484375 -3.34375 C 0.484375 -3.707031 0.609375 -4.003906 0.859375 -4.234375 C 1.117188 -4.460938 1.457031 -4.585938 1.875 -4.609375 C 2.175781 -4.609375 2.441406 -4.570312 2.671875 -4.5 C 2.898438 -4.4375 3.113281 -4.34375 3.3125 -4.21875 Z M 3.03125 -3.65625 "/></g></g></g><g fill="#000000" fill-opacity="1"><g transform="translate(145.623014, 219.180937)"><g><path d="M 1.296875 -1.65625 C 1.296875 -1.476562 1.335938 -1.3125 1.421875 -1.15625 C 1.515625 -1.007812 1.640625 -0.890625 1.796875 -0.796875 C 1.960938 -0.703125 2.140625 -0.65625 2.328125 -0.65625 C 2.523438 -0.65625 2.703125 -0.695312 2.859375 -0.78125 C 3.023438 -0.875 3.15625 -0.992188 3.25 -1.140625 C 3.34375 -1.296875 3.390625 -1.46875 3.390625 -1.65625 L 3.390625 -4.578125 L 4.109375 -4.578125 L 4.109375 -1.625 C 4.109375 -1.300781 4.03125 -1.007812 3.875 -0.75 C 3.71875 -0.5 3.503906 -0.300781 3.234375 -0.15625 C 2.960938 -0.0195312 2.660156 0.046875 2.328125 0.046875 C 2.003906 0.046875 1.707031 -0.0195312 1.4375 -0.15625 C 1.164062 -0.300781 0.953125 -0.5 0.796875 -0.75 C 0.640625 -1.007812 0.5625 -1.300781 0.5625 -1.625 L 0.5625 -4.578125 L 1.296875 -4.578125 Z M 1.296875 -1.65625 "/></g></g></g><g fill="#000000" fill-opacity="1"><g transform="translate(152.801498, 219.180937)"><g><path d="M 4.03125 -0.359375 C 3.894531 -0.265625 3.707031 -0.171875 3.46875 -0.078125 C 3.226562 0.00390625 2.96875 0.046875 2.6875 0.046875 C 2.21875 0.046875 1.804688 -0.0546875 1.453125 -0.265625 C 1.097656 -0.472656 0.820312 -0.75 0.625 -1.09375 C 0.4375 -1.445312 0.34375 -1.832031 0.34375 -2.25 C 0.34375 -2.707031 0.4375 -3.117188 0.625 -3.484375 C 0.820312 -3.847656 1.09375 -4.128906 1.4375 -4.328125 C 1.78125 -4.535156 2.164062 -4.640625 2.59375 -4.640625 C 2.863281 -4.640625 3.113281 -4.601562 3.34375 -4.53125 C 3.570312 -4.457031 3.773438 -4.363281 3.953125 -4.25 L 3.671875 -3.578125 C 3.328125 -3.804688 2.976562 -3.921875 2.625 -3.921875 C 2.351562 -3.921875 2.101562 -3.847656 1.875 -3.703125 C 1.644531 -3.566406 1.457031 -3.375 1.3125 -3.125 C 1.175781 -2.875 1.109375 -2.597656 1.109375 -2.296875 C 1.109375 -1.984375 1.171875 -1.703125 1.296875 -1.453125 C 1.429688 -1.203125 1.613281 -1.003906 1.84375 -0.859375 C 2.082031 -0.722656 2.359375 -0.65625 2.671875 -0.65625 C 2.890625 -0.65625 3.085938 -0.6875 3.265625 -0.75 C 3.441406 -0.820312 3.59375 -0.910156 3.71875 -1.015625 Z M 4.03125 -0.359375 "/></g></g></g><g fill="#000000" fill-opacity="1"><g transform="translate(159.690578, 219.180937)"><g><path d="M 4.03125 -0.359375 C 3.894531 -0.265625 3.707031 -0.171875 3.46875 -0.078125 C 3.226562 0.00390625 2.96875 0.046875 2.6875 0.046875 C 2.21875 0.046875 1.804688 -0.0546875 1.453125 -0.265625 C 1.097656 -0.472656 0.820312 -0.75 0.625 -1.09375 C 0.4375 -1.445312 0.34375 -1.832031 0.34375 -2.25 C 0.34375 -2.707031 0.4375 -3.117188 0.625 -3.484375 C 0.820312 -3.847656 1.09375 -4.128906 1.4375 -4.328125 C 1.78125 -4.535156 2.164062 -4.640625 2.59375 -4.640625 C 2.863281 -4.640625 3.113281 -4.601562 3.34375 -4.53125 C 3.570312 -4.457031 3.773438 -4.363281 3.953125 -4.25 L 3.671875 -3.578125 C 3.328125 -3.804688 2.976562 -3.921875 2.625 -3.921875 C 2.351562 -3.921875 2.101562 -3.847656 1.875 -3.703125 C 1.644531 -3.566406 1.457031 -3.375 1.3125 -3.125 C 1.175781 -2.875 1.109375 -2.597656 1.109375 -2.296875 C 1.109375 -1.984375 1.171875 -1.703125 1.296875 -1.453125 C 1.429688 -1.203125 1.613281 -1.003906 1.84375 -0.859375 C 2.082031 -0.722656 2.359375 -0.65625 2.671875 -0.65625 C 2.890625 -0.65625 3.085938 -0.6875 3.265625 -0.75 C 3.441406 -0.820312 3.59375 -0.910156 3.71875 -1.015625 Z M 4.03125 -0.359375 "/></g></g></g><g fill="#000000" fill-opacity="1"><g transform="translate(166.579658, 219.180937)"><g><path d="M 3.671875 -4.578125 L 3.671875 -3.875 L 1.359375 -3.875 L 1.359375 -2.65625 L 3.421875 -2.65625 L 3.421875 -1.953125 L 1.359375 -1.953125 L 1.359375 -0.703125 L 3.765625 -0.703125 L 3.765625 0 L 0.625 0 L 0.625 -4.578125 Z M 1.875 -5.765625 L 2.3125 -4.921875 L 1.859375 -4.921875 L 1.09375 -5.765625 Z M 1.875 -5.765625 "/></g></g></g><g fill="#000000" fill-opacity="1"><g transform="translate(173.235958, 219.180937)"><g><path d="M 3.03125 -3.65625 C 2.632812 -3.851562 2.285156 -3.953125 1.984375 -3.953125 C 1.753906 -3.953125 1.570312 -3.898438 1.4375 -3.796875 C 1.3125 -3.703125 1.25 -3.566406 1.25 -3.390625 C 1.25 -3.222656 1.332031 -3.082031 1.5 -2.96875 C 1.664062 -2.851562 1.894531 -2.738281 2.1875 -2.625 C 2.414062 -2.539062 2.609375 -2.445312 2.765625 -2.34375 C 2.929688 -2.238281 3.066406 -2.097656 3.171875 -1.921875 C 3.273438 -1.742188 3.328125 -1.523438 3.328125 -1.265625 C 3.328125 -1.015625 3.265625 -0.789062 3.140625 -0.59375 C 3.023438 -0.394531 2.847656 -0.238281 2.609375 -0.125 C 2.378906 -0.0078125 2.109375 0.046875 1.796875 0.046875 C 1.523438 0.046875 1.253906 0.00390625 0.984375 -0.078125 C 0.710938 -0.160156 0.472656 -0.28125 0.265625 -0.4375 L 0.59375 -1 C 0.75 -0.882812 0.929688 -0.785156 1.140625 -0.703125 C 1.347656 -0.628906 1.546875 -0.59375 1.734375 -0.59375 C 1.953125 -0.59375 2.144531 -0.644531 2.3125 -0.75 C 2.476562 -0.863281 2.5625 -1.03125 2.5625 -1.25 C 2.5625 -1.425781 2.488281 -1.570312 2.34375 -1.6875 C 2.207031 -1.8125 2.015625 -1.921875 1.765625 -2.015625 C 1.503906 -2.109375 1.285156 -2.203125 1.109375 -2.296875 C 0.941406 -2.390625 0.796875 -2.519531 0.671875 -2.6875 C 0.546875 -2.863281 0.484375 -3.082031 0.484375 -3.34375 C 0.484375 -3.707031 0.609375 -4.003906 0.859375 -4.234375 C 1.117188 -4.460938 1.457031 -4.585938 1.875 -4.609375 C 2.175781 -4.609375 2.441406 -4.570312 2.671875 -4.5 C 2.898438 -4.4375 3.113281 -4.34375 3.3125 -4.21875 Z M 3.03125 -3.65625 "/></g></g></g><g fill="#000000" fill-opacity="1"><g transform="translate(179.414112, 219.180937)"><g><path d="M 0.546875 0.765625 L -0.015625 0.765625 L 0.140625 0.328125 C 0.328125 -0.179688 0.4375 -0.472656 0.46875 -0.546875 L 1.109375 -0.546875 Z M 0.546875 0.765625 "/></g></g></g><g fill="#000000" fill-opacity="1"><g transform="translate(183.214107, 219.180937)"><g/></g></g><g fill="#000000" fill-opacity="1"><g transform="translate(187.743908, 219.180937)"><g><path d="M 4.671875 -4.578125 L 4.671875 0.15625 L 4.65625 0.15625 L 1.359375 -3.046875 L 1.375 0 L 0.625 0 L 0.625 -4.734375 L 0.671875 -4.734375 L 3.953125 -1.5 L 3.953125 -4.578125 Z M 4.671875 -4.578125 "/></g></g></g><g fill="#000000" fill-opacity="1"><g transform="translate(195.570407, 219.180937)"><g><path d="M 0.34375 -2.28125 C 0.34375 -2.707031 0.445312 -3.097656 0.65625 -3.453125 C 0.863281 -3.816406 1.144531 -4.101562 1.5 -4.3125 C 1.863281 -4.53125 2.257812 -4.640625 2.6875 -4.640625 C 3.101562 -4.640625 3.488281 -4.53125 3.84375 -4.3125 C 4.207031 -4.101562 4.492188 -3.816406 4.703125 -3.453125 C 4.921875 -3.085938 5.03125 -2.695312 5.03125 -2.28125 C 5.03125 -1.863281 4.925781 -1.472656 4.71875 -1.109375 C 4.507812 -0.753906 4.222656 -0.472656 3.859375 -0.265625 C 3.492188 -0.0546875 3.101562 0.046875 2.6875 0.046875 C 2.257812 0.046875 1.863281 -0.0546875 1.5 -0.265625 C 1.144531 -0.472656 0.863281 -0.753906 0.65625 -1.109375 C 0.445312 -1.460938 0.34375 -1.851562 0.34375 -2.28125 Z M 1.109375 -2.28125 C 1.109375 -1.988281 1.175781 -1.71875 1.3125 -1.46875 C 1.457031 -1.21875 1.648438 -1.019531 1.890625 -0.875 C 2.140625 -0.726562 2.410156 -0.65625 2.703125 -0.65625 C 2.992188 -0.65625 3.257812 -0.726562 3.5 -0.875 C 3.738281 -1.019531 3.925781 -1.21875 4.0625 -1.46875 C 4.207031 -1.71875 4.28125 -1.988281 4.28125 -2.28125 C 4.28125 -2.582031 4.207031 -2.859375 4.0625 -3.109375 C 3.925781 -3.359375 3.734375 -3.554688 3.484375 -3.703125 C 3.242188 -3.847656 2.976562 -3.921875 2.6875 -3.921875 C 2.394531 -3.921875 2.128906 -3.847656 1.890625 -3.703125 C 1.648438 -3.554688 1.457031 -3.359375 1.3125 -3.109375 C 1.175781 -2.859375 1.109375 -2.582031 1.109375 -2.28125 Z M 1.109375 -2.28125 "/></g></g></g><g fill="#000000" fill-opacity="1"><g transform="translate(203.466114, 219.180937)"><g><path d="M 3.375 -4.578125 L 3.375 -3.875 L 2.1875 -3.875 L 2.1875 0 L 1.453125 0 L 1.453125 -3.875 L 0.296875 -3.875 L 0.296875 -4.578125 Z M 3.375 -4.578125 "/></g></g></g><g fill="#000000" fill-opacity="1"><g transform="translate(209.650555, 219.180937)"><g><path d="M 3.140625 0 L 2.109375 -1.59375 L 1.359375 -1.59375 L 1.359375 0 L 0.625 0 L 0.625 -4.578125 L 1.921875 -4.578125 C 2.429688 -4.578125 2.835938 -4.445312 3.140625 -4.1875 C 3.453125 -3.925781 3.609375 -3.566406 3.609375 -3.109375 C 3.609375 -2.828125 3.546875 -2.566406 3.421875 -2.328125 C 3.304688 -2.085938 3.125 -1.898438 2.875 -1.765625 L 3.984375 0 Z M 1.359375 -2.296875 L 2.015625 -2.296875 C 2.316406 -2.296875 2.53125 -2.375 2.65625 -2.53125 C 2.789062 -2.695312 2.859375 -2.878906 2.859375 -3.078125 C 2.859375 -3.203125 2.832031 -3.320312 2.78125 -3.4375 C 2.726562 -3.5625 2.640625 -3.664062 2.515625 -3.75 C 2.398438 -3.832031 2.242188 -3.875 2.046875 -3.875 L 1.359375 -3.875 Z M 1.359375 -2.296875 "/></g></g></g><g fill="#000000" fill-opacity="1"><g transform="translate(216.38235, 219.180937)"><g><path d="M 3.671875 -4.578125 L 3.671875 -3.875 L 1.359375 -3.875 L 1.359375 -2.65625 L 3.421875 -2.65625 L 3.421875 -1.953125 L 1.359375 -1.953125 L 1.359375 -0.703125 L 3.765625 -0.703125 L 3.765625 0 L 0.625 0 L 0.625 -4.578125 Z M 3.671875 -4.578125 "/></g></g></g><g fill="#000000" fill-opacity="1"><g transform="translate(223.038649, 219.180937)"><g/></g></g><g fill="#000000" fill-opacity="1"><g transform="translate(227.56845, 219.180937)"><g><path d="M 1.921875 -4.578125 C 2.441406 -4.578125 2.847656 -4.445312 3.140625 -4.1875 C 3.441406 -3.925781 3.59375 -3.566406 3.59375 -3.109375 C 3.59375 -2.847656 3.539062 -2.601562 3.4375 -2.375 C 3.332031 -2.144531 3.160156 -1.957031 2.921875 -1.8125 C 2.691406 -1.664062 2.394531 -1.59375 2.03125 -1.59375 L 1.359375 -1.59375 L 1.359375 0 L 0.625 0 L 0.625 -4.578125 Z M 2.03125 -2.296875 C 2.226562 -2.296875 2.390625 -2.335938 2.515625 -2.421875 C 2.640625 -2.515625 2.726562 -2.617188 2.78125 -2.734375 C 2.832031 -2.859375 2.859375 -2.976562 2.859375 -3.09375 C 2.859375 -3.289062 2.796875 -3.46875 2.671875 -3.625 C 2.546875 -3.789062 2.335938 -3.875 2.046875 -3.875 L 1.359375 -3.875 L 1.359375 -2.296875 Z M 2.03125 -2.296875 "/></g></g></g><g fill="#000000" fill-opacity="1"><g transform="translate(233.92905, 219.180937)"><g><path d="M 3.140625 0 L 2.109375 -1.59375 L 1.359375 -1.59375 L 1.359375 0 L 0.625 0 L 0.625 -4.578125 L 1.921875 -4.578125 C 2.429688 -4.578125 2.835938 -4.445312 3.140625 -4.1875 C 3.453125 -3.925781 3.609375 -3.566406 3.609375 -3.109375 C 3.609375 -2.828125 3.546875 -2.566406 3.421875 -2.328125 C 3.304688 -2.085938 3.125 -1.898438 2.875 -1.765625 L 3.984375 0 Z M 1.359375 -2.296875 L 2.015625 -2.296875 C 2.316406 -2.296875 2.53125 -2.375 2.65625 -2.53125 C 2.789062 -2.695312 2.859375 -2.878906 2.859375 -3.078125 C 2.859375 -3.203125 2.832031 -3.320312 2.78125 -3.4375 C 2.726562 -3.5625 2.640625 -3.664062 2.515625 -3.75 C 2.398438 -3.832031 2.242188 -3.875 2.046875 -3.875 L 1.359375 -3.875 Z M 1.359375 -2.296875 "/></g></g></g><g fill="#000000" fill-opacity="1"><g transform="translate(240.660836, 219.180937)"><g><path d="M 1.359375 -4.578125 L 1.359375 0 L 0.625 0 L 0.625 -4.578125 Z M 1.359375 -4.578125 "/></g></g></g><g fill="#000000" fill-opacity="1"><g transform="translate(245.171766, 219.180937)"><g><path d="M 0.34375 -2.28125 C 0.34375 -2.707031 0.445312 -3.097656 0.65625 -3.453125 C 0.863281 -3.816406 1.144531 -4.101562 1.5 -4.3125 C 1.863281 -4.53125 2.257812 -4.640625 2.6875 -4.640625 C 3.101562 -4.640625 3.488281 -4.53125 3.84375 -4.3125 C 4.207031 -4.101562 4.492188 -3.816406 4.703125 -3.453125 C 4.921875 -3.085938 5.03125 -2.695312 5.03125 -2.28125 C 5.03125 -1.863281 4.925781 -1.472656 4.71875 -1.109375 C 4.507812 -0.753906 4.222656 -0.472656 3.859375 -0.265625 C 3.492188 -0.0546875 3.101562 0.046875 2.6875 0.046875 C 2.257812 0.046875 1.863281 -0.0546875 1.5 -0.265625 C 1.144531 -0.472656 0.863281 -0.753906 0.65625 -1.109375 C 0.445312 -1.460938 0.34375 -1.851562 0.34375 -2.28125 Z M 1.109375 -2.28125 C 1.109375 -1.988281 1.175781 -1.71875 1.3125 -1.46875 C 1.457031 -1.21875 1.648438 -1.019531 1.890625 -0.875 C 2.140625 -0.726562 2.410156 -0.65625 2.703125 -0.65625 C 2.992188 -0.65625 3.257812 -0.726562 3.5 -0.875 C 3.738281 -1.019531 3.925781 -1.21875 4.0625 -1.46875 C 4.207031 -1.71875 4.28125 -1.988281 4.28125 -2.28125 C 4.28125 -2.582031 4.207031 -2.859375 4.0625 -3.109375 C 3.925781 -3.359375 3.734375 -3.554688 3.484375 -3.703125 C 3.242188 -3.847656 2.976562 -3.921875 2.6875 -3.921875 C 2.394531 -3.921875 2.128906 -3.847656 1.890625 -3.703125 C 1.648438 -3.554688 1.457031 -3.359375 1.3125 -3.109375 C 1.175781 -2.859375 1.109375 -2.582031 1.109375 -2.28125 Z M 1.109375 -2.28125 "/></g></g></g><g fill="#000000" fill-opacity="1"><g transform="translate(253.067464, 219.180937)"><g><path d="M 3.140625 0 L 2.109375 -1.59375 L 1.359375 -1.59375 L 1.359375 0 L 0.625 0 L 0.625 -4.578125 L 1.921875 -4.578125 C 2.429688 -4.578125 2.835938 -4.445312 3.140625 -4.1875 C 3.453125 -3.925781 3.609375 -3.566406 3.609375 -3.109375 C 3.609375 -2.828125 3.546875 -2.566406 3.421875 -2.328125 C 3.304688 -2.085938 3.125 -1.898438 2.875 -1.765625 L 3.984375 0 Z M 1.359375 -2.296875 L 2.015625 -2.296875 C 2.316406 -2.296875 2.53125 -2.375 2.65625 -2.53125 C 2.789062 -2.695312 2.859375 -2.878906 2.859375 -3.078125 C 2.859375 -3.203125 2.832031 -3.320312 2.78125 -3.4375 C 2.726562 -3.5625 2.640625 -3.664062 2.515625 -3.75 C 2.398438 -3.832031 2.242188 -3.875 2.046875 -3.875 L 1.359375 -3.875 Z M 1.359375 -2.296875 "/></g></g></g><g fill="#000000" fill-opacity="1"><g transform="translate(259.799258, 219.180937)"><g><path d="M 1.359375 -4.578125 L 1.359375 0 L 0.625 0 L 0.625 -4.578125 Z M 1.359375 -4.578125 "/></g></g></g><g fill="#000000" fill-opacity="1"><g transform="translate(264.310187, 219.180937)"><g><path d="M 3.375 -4.578125 L 3.375 -3.875 L 2.1875 -3.875 L 2.1875 0 L 1.453125 0 L 1.453125 -3.875 L 0.296875 -3.875 L 0.296875 -4.578125 Z M 3.375 -4.578125 "/></g></g></g><g fill="#000000" fill-opacity="1"><g transform="translate(270.494629, 219.180937)"><g><path d="M 3.671875 -4.578125 L 3.671875 -3.875 L 1.359375 -3.875 L 1.359375 -2.65625 L 3.421875 -2.65625 L 3.421875 -1.953125 L 1.359375 -1.953125 L 1.359375 -0.703125 L 3.765625 -0.703125 L 3.765625 0 L 0.625 0 L 0.625 -4.578125 Z M 2.34375 -4.875 L 1.90625 -4.875 L 2.40625 -5.71875 L 3.1875 -5.71875 Z M 2.34375 -4.875 "/></g></g></g></svg>