<svg xmlns="http://www.w3.org/2000/svg" xmlns:xlink="http://www.w3.org/1999/xlink" width="500" zoomAndPan="magnify" viewBox="0 0 375 374.999991" height="500" preserveAspectRatio="xMidYMid meet" version="1.0"><defs><g/><clipPath id="eb623b4974"><path d="M 69 57 L 301 57 L 301 289 L 69 289 Z M 69 57 " clip-rule="nonzero"/></clipPath><clipPath id="f81935d2e5"><path d="M 182.882812 57.058594 C 119.128906 58.308594 68.5 110.816406 69.125 174.578125 C 70.375 238.339844 122.878906 288.972656 186.632812 288.347656 C 250.386719 287.097656 301.015625 234.589844 300.390625 170.828125 C 299.140625 107.066406 246.636719 55.808594 182.882812 57.058594 Z M 151.003906 76.4375 C 144.128906 85.8125 137.878906 97.691406 133.503906 111.441406 L 103.5 111.441406 C 115.378906 95.816406 131.628906 83.3125 151.003906 76.4375 Z M 94.75 125.195312 L 129.128906 125.195312 C 126.003906 137.699219 124.753906 151.449219 124.128906 165.828125 L 83.5 165.828125 C 84.125 151.449219 88.5 137.699219 94.75 125.195312 Z M 83.5 179.578125 L 124.128906 179.578125 C 124.753906 193.957031 126.003906 207.707031 129.128906 220.210938 L 94.75 220.210938 C 88.5 207.707031 84.125 193.957031 83.5 179.578125 Z M 103.5 233.335938 L 133.503906 233.335938 C 137.878906 247.089844 144.128906 259.59375 151.003906 268.34375 C 131.628906 261.46875 115.378906 249.589844 103.5 233.335938 Z M 178.507812 273.34375 C 163.503906 268.34375 152.878906 248.339844 147.878906 233.335938 L 178.507812 233.335938 Z M 178.507812 220.210938 L 143.503906 220.210938 C 140.378906 207.707031 138.503906 193.957031 137.878906 179.578125 L 178.507812 179.578125 Z M 178.507812 165.828125 L 137.878906 165.828125 C 138.503906 151.449219 140.378906 137.699219 143.503906 125.195312 L 178.507812 125.195312 Z M 178.507812 111.441406 L 147.878906 111.441406 C 153.503906 96.441406 163.503906 76.4375 178.507812 71.4375 Z M 286.640625 165.828125 L 246.011719 165.828125 C 245.386719 151.449219 244.136719 137.699219 241.011719 125.195312 L 275.390625 125.195312 C 281.640625 137.699219 286.015625 151.449219 286.640625 165.828125 Z M 266.640625 111.441406 L 236.636719 111.441406 C 232.261719 97.691406 226.011719 85.1875 219.136719 76.4375 C 238.511719 83.3125 254.761719 95.816406 266.640625 111.441406 Z M 191.632812 72.0625 C 206.632812 77.0625 217.261719 97.066406 222.261719 112.066406 L 191.632812 112.066406 Z M 191.632812 125.195312 L 226.636719 125.195312 C 229.761719 137.699219 231.636719 151.449219 232.261719 165.828125 L 191.632812 165.828125 Z M 191.632812 179.578125 L 232.261719 179.578125 C 231.636719 193.957031 229.761719 207.707031 226.636719 220.210938 L 191.632812 220.210938 Z M 191.632812 273.34375 L 191.632812 233.335938 L 222.261719 233.335938 C 217.261719 248.339844 207.257812 268.34375 191.632812 273.34375 Z M 219.136719 268.34375 C 226.011719 258.96875 232.261719 247.089844 236.636719 233.335938 L 266.640625 233.335938 C 254.761719 249.589844 238.511719 261.46875 219.136719 268.34375 Z M 275.390625 220.210938 L 241.011719 220.210938 C 244.136719 207.707031 245.386719 193.957031 246.011719 179.578125 L 286.640625 179.578125 C 286.015625 193.957031 281.640625 207.707031 275.390625 220.210938 Z M 275.390625 220.210938 " clip-rule="evenodd"/></clipPath><linearGradient x1="-179.419049" gradientTransform="matrix(2.454218, 0, 0, 2.454415, 510.415362, -321.152882)" y1="152.963819" x2="-86.078143" gradientUnits="userSpaceOnUse" y2="249.311504" id="c3620326b0"><stop stop-opacity="1" stop-color="rgb(100%, 49.398804%, 81.199646%)" offset="0"/><stop stop-opacity="1" stop-color="rgb(100%, 49.398804%, 81.199646%)" offset="0.015625"/><stop stop-opacity="1" stop-color="rgb(100%, 49.398804%, 81.199646%)" offset="0.0234375"/><stop stop-opacity="1" stop-color="rgb(99.80011%, 49.305725%, 81.227112%)" offset="0.0273438"/><stop stop-opacity="1" stop-color="rgb(99.60022%, 49.214172%, 81.254578%)" offset="0.03125"/><stop stop-opacity="1" stop-color="rgb(99.394226%, 49.118042%, 81.282043%)" offset="0.0351562"/><stop stop-opacity="1" stop-color="rgb(99.189758%, 49.023438%, 81.311035%)" offset="0.0390625"/><stop stop-opacity="1" stop-color="rgb(98.983765%, 48.927307%, 81.338501%)" offset="0.0429688"/><stop stop-opacity="1" stop-color="rgb(98.779297%, 48.832703%, 81.367493%)" offset="0.046875"/><stop stop-opacity="1" stop-color="rgb(98.573303%, 48.736572%, 81.396484%)" offset="0.0507813"/><stop stop-opacity="1" stop-color="rgb(98.368835%, 48.641968%, 81.425476%)" offset="0.0546875"/><stop stop-opacity="1" stop-color="rgb(98.162842%, 48.545837%, 81.452942%)" offset="0.0585938"/><stop stop-opacity="1" stop-color="rgb(97.958374%, 48.451233%, 81.481934%)" offset="0.0625"/><stop stop-opacity="1" stop-color="rgb(97.75238%, 48.355103%, 81.509399%)" offset="0.0664063"/><stop stop-opacity="1" stop-color="rgb(97.547913%, 48.260498%, 81.538391%)" offset="0.0703125"/><stop stop-opacity="1" stop-color="rgb(97.341919%, 48.164368%, 81.565857%)" offset="0.0742188"/><stop stop-opacity="1" stop-color="rgb(97.137451%, 48.069763%, 81.594849%)" offset="0.078125"/><stop stop-opacity="1" stop-color="rgb(96.931458%, 47.973633%, 81.622314%)" offset="0.0820313"/><stop stop-opacity="1" stop-color="rgb(96.72699%, 47.879028%, 81.651306%)" offset="0.0859375"/><stop stop-opacity="1" stop-color="rgb(96.520996%, 47.782898%, 81.680298%)" offset="0.0898438"/><stop stop-opacity="1" stop-color="rgb(96.316528%, 47.688293%, 81.70929%)" offset="0.09375"/><stop stop-opacity="1" stop-color="rgb(96.110535%, 47.593689%, 81.736755%)" offset="0.0976563"/><stop stop-opacity="1" stop-color="rgb(95.906067%, 47.499084%, 81.765747%)" offset="0.101563"/><stop stop-opacity="1" stop-color="rgb(95.700073%, 47.402954%, 81.793213%)" offset="0.105469"/><stop stop-opacity="1" stop-color="rgb(95.495605%, 47.30835%, 81.822205%)" offset="0.109375"/><stop stop-opacity="1" stop-color="rgb(95.289612%, 47.212219%, 81.84967%)" offset="0.113281"/><stop stop-opacity="1" stop-color="rgb(95.085144%, 47.117615%, 81.878662%)" offset="0.117188"/><stop stop-opacity="1" stop-color="rgb(94.87915%, 47.021484%, 81.906128%)" offset="0.121094"/><stop stop-opacity="1" stop-color="rgb(94.674683%, 46.92688%, 81.93512%)" offset="0.125"/><stop stop-opacity="1" stop-color="rgb(94.468689%, 46.83075%, 81.964111%)" offset="0.128906"/><stop stop-opacity="1" stop-color="rgb(94.264221%, 46.736145%, 81.993103%)" offset="0.132813"/><stop stop-opacity="1" stop-color="rgb(94.058228%, 46.640015%, 82.020569%)" offset="0.136719"/><stop stop-opacity="1" stop-color="rgb(93.85376%, 46.54541%, 82.049561%)" offset="0.140625"/><stop stop-opacity="1" stop-color="rgb(93.647766%, 46.44928%, 82.077026%)" offset="0.144531"/><stop stop-opacity="1" stop-color="rgb(93.443298%, 46.354675%, 82.106018%)" offset="0.148438"/><stop stop-opacity="1" stop-color="rgb(93.237305%, 46.258545%, 82.133484%)" offset="0.152344"/><stop stop-opacity="1" stop-color="rgb(93.032837%, 46.16394%, 82.162476%)" offset="0.15625"/><stop stop-opacity="1" stop-color="rgb(92.826843%, 46.06781%, 82.189941%)" offset="0.160156"/><stop stop-opacity="1" stop-color="rgb(92.622375%, 45.973206%, 82.218933%)" offset="0.164063"/><stop stop-opacity="1" stop-color="rgb(92.416382%, 45.877075%, 82.247925%)" offset="0.167969"/><stop stop-opacity="1" stop-color="rgb(92.211914%, 45.782471%, 82.276917%)" offset="0.171875"/><stop stop-opacity="1" stop-color="rgb(92.00592%, 45.68634%, 82.304382%)" offset="0.175781"/><stop stop-opacity="1" stop-color="rgb(91.801453%, 45.591736%, 82.333374%)" offset="0.179688"/><stop stop-opacity="1" stop-color="rgb(91.595459%, 45.495605%, 82.36084%)" offset="0.183594"/><stop stop-opacity="1" stop-color="rgb(91.390991%, 45.401001%, 82.389832%)" offset="0.1875"/><stop stop-opacity="1" stop-color="rgb(91.184998%, 45.304871%, 82.417297%)" offset="0.191406"/><stop stop-opacity="1" stop-color="rgb(90.98053%, 45.210266%, 82.446289%)" offset="0.195313"/><stop stop-opacity="1" stop-color="rgb(90.774536%, 45.115662%, 82.475281%)" offset="0.199219"/><stop stop-opacity="1" stop-color="rgb(90.570068%, 45.021057%, 82.504272%)" offset="0.203125"/><stop stop-opacity="1" stop-color="rgb(90.364075%, 44.924927%, 82.531738%)" offset="0.207031"/><stop stop-opacity="1" stop-color="rgb(90.159607%, 44.830322%, 82.56073%)" offset="0.210938"/><stop stop-opacity="1" stop-color="rgb(89.953613%, 44.734192%, 82.588196%)" offset="0.214844"/><stop stop-opacity="1" stop-color="rgb(89.749146%, 44.639587%, 82.617188%)" offset="0.21875"/><stop stop-opacity="1" stop-color="rgb(89.543152%, 44.543457%, 82.644653%)" offset="0.222656"/><stop stop-opacity="1" stop-color="rgb(89.338684%, 44.448853%, 82.673645%)" offset="0.226563"/><stop stop-opacity="1" stop-color="rgb(89.134216%, 44.352722%, 82.701111%)" offset="0.230469"/><stop stop-opacity="1" stop-color="rgb(88.929749%, 44.258118%, 82.730103%)" offset="0.234375"/><stop stop-opacity="1" stop-color="rgb(88.723755%, 44.161987%, 82.759094%)" offset="0.238281"/><stop stop-opacity="1" stop-color="rgb(88.519287%, 44.067383%, 82.788086%)" offset="0.242188"/><stop stop-opacity="1" stop-color="rgb(88.313293%, 43.971252%, 82.815552%)" offset="0.246094"/><stop stop-opacity="1" stop-color="rgb(88.108826%, 43.876648%, 82.844543%)" offset="0.25"/><stop stop-opacity="1" stop-color="rgb(87.902832%, 43.780518%, 82.872009%)" offset="0.253906"/><stop stop-opacity="1" stop-color="rgb(87.698364%, 43.685913%, 82.901001%)" offset="0.257812"/><stop stop-opacity="1" stop-color="rgb(87.492371%, 43.589783%, 82.928467%)" offset="0.261719"/><stop stop-opacity="1" stop-color="rgb(87.287903%, 43.495178%, 82.957458%)" offset="0.265625"/><stop stop-opacity="1" stop-color="rgb(87.081909%, 43.399048%, 82.984924%)" offset="0.269531"/><stop stop-opacity="1" stop-color="rgb(86.877441%, 43.304443%, 83.013916%)" offset="0.273438"/><stop stop-opacity="1" stop-color="rgb(86.671448%, 43.208313%, 83.042908%)" offset="0.277344"/><stop stop-opacity="1" stop-color="rgb(86.46698%, 43.113708%, 83.071899%)" offset="0.28125"/><stop stop-opacity="1" stop-color="rgb(86.260986%, 43.017578%, 83.099365%)" offset="0.285156"/><stop stop-opacity="1" stop-color="rgb(86.056519%, 42.922974%, 83.128357%)" offset="0.289063"/><stop stop-opacity="1" stop-color="rgb(85.850525%, 42.826843%, 83.155823%)" offset="0.292969"/><stop stop-opacity="1" stop-color="rgb(85.646057%, 42.732239%, 83.184814%)" offset="0.296875"/><stop stop-opacity="1" stop-color="rgb(85.440063%, 42.637634%, 83.21228%)" offset="0.300781"/><stop stop-opacity="1" stop-color="rgb(85.235596%, 42.54303%, 83.241272%)" offset="0.304688"/><stop stop-opacity="1" stop-color="rgb(85.029602%, 42.446899%, 83.268738%)" offset="0.308594"/><stop stop-opacity="1" stop-color="rgb(84.825134%, 42.352295%, 83.297729%)" offset="0.3125"/><stop stop-opacity="1" stop-color="rgb(84.619141%, 42.256165%, 83.326721%)" offset="0.316406"/><stop stop-opacity="1" stop-color="rgb(84.414673%, 42.16156%, 83.355713%)" offset="0.320312"/><stop stop-opacity="1" stop-color="rgb(84.208679%, 42.06543%, 83.383179%)" offset="0.324219"/><stop stop-opacity="1" stop-color="rgb(84.004211%, 41.970825%, 83.41217%)" offset="0.328125"/><stop stop-opacity="1" stop-color="rgb(83.798218%, 41.874695%, 83.439636%)" offset="0.332031"/><stop stop-opacity="1" stop-color="rgb(83.59375%, 41.78009%, 83.468628%)" offset="0.335938"/><stop stop-opacity="1" stop-color="rgb(83.387756%, 41.68396%, 83.496094%)" offset="0.339844"/><stop stop-opacity="1" stop-color="rgb(83.183289%, 41.589355%, 83.525085%)" offset="0.34375"/><stop stop-opacity="1" stop-color="rgb(82.977295%, 41.493225%, 83.554077%)" offset="0.347656"/><stop stop-opacity="1" stop-color="rgb(82.772827%, 41.398621%, 83.583069%)" offset="0.351563"/><stop stop-opacity="1" stop-color="rgb(82.566833%, 41.30249%, 83.610535%)" offset="0.355469"/><stop stop-opacity="1" stop-color="rgb(82.362366%, 41.207886%, 83.639526%)" offset="0.359375"/><stop stop-opacity="1" stop-color="rgb(82.156372%, 41.111755%, 83.666992%)" offset="0.363281"/><stop stop-opacity="1" stop-color="rgb(81.951904%, 41.017151%, 83.695984%)" offset="0.367188"/><stop stop-opacity="1" stop-color="rgb(81.745911%, 40.921021%, 83.72345%)" offset="0.371094"/><stop stop-opacity="1" stop-color="rgb(81.541443%, 40.826416%, 83.752441%)" offset="0.375"/><stop stop-opacity="1" stop-color="rgb(81.335449%, 40.730286%, 83.779907%)" offset="0.378906"/><stop stop-opacity="1" stop-color="rgb(81.130981%, 40.635681%, 83.808899%)" offset="0.382813"/><stop stop-opacity="1" stop-color="rgb(80.924988%, 40.539551%, 83.837891%)" offset="0.386719"/><stop stop-opacity="1" stop-color="rgb(80.72052%, 40.444946%, 83.866882%)" offset="0.390625"/><stop stop-opacity="1" stop-color="rgb(80.514526%, 40.348816%, 83.894348%)" offset="0.394531"/><stop stop-opacity="1" stop-color="rgb(80.310059%, 40.254211%, 83.92334%)" offset="0.398438"/><stop stop-opacity="1" stop-color="rgb(80.104065%, 40.159607%, 83.950806%)" offset="0.402344"/><stop stop-opacity="1" stop-color="rgb(79.899597%, 40.065002%, 83.979797%)" offset="0.40625"/><stop stop-opacity="1" stop-color="rgb(79.693604%, 39.968872%, 84.007263%)" offset="0.410156"/><stop stop-opacity="1" stop-color="rgb(79.489136%, 39.874268%, 84.036255%)" offset="0.414063"/><stop stop-opacity="1" stop-color="rgb(79.283142%, 39.778137%, 84.063721%)" offset="0.417969"/><stop stop-opacity="1" stop-color="rgb(79.078674%, 39.683533%, 84.092712%)" offset="0.421875"/><stop stop-opacity="1" stop-color="rgb(78.872681%, 39.587402%, 84.121704%)" offset="0.425781"/><stop stop-opacity="1" stop-color="rgb(78.668213%, 39.492798%, 84.150696%)" offset="0.429688"/><stop stop-opacity="1" stop-color="rgb(78.462219%, 39.396667%, 84.178162%)" offset="0.433594"/><stop stop-opacity="1" stop-color="rgb(78.257751%, 39.302063%, 84.207153%)" offset="0.4375"/><stop stop-opacity="1" stop-color="rgb(78.051758%, 39.205933%, 84.234619%)" offset="0.441406"/><stop stop-opacity="1" stop-color="rgb(77.84729%, 39.111328%, 84.263611%)" offset="0.445312"/><stop stop-opacity="1" stop-color="rgb(77.641296%, 39.015198%, 84.291077%)" offset="0.449219"/><stop stop-opacity="1" stop-color="rgb(77.436829%, 38.920593%, 84.320068%)" offset="0.453125"/><stop stop-opacity="1" stop-color="rgb(77.230835%, 38.824463%, 84.34906%)" offset="0.457031"/><stop stop-opacity="1" stop-color="rgb(77.026367%, 38.729858%, 84.378052%)" offset="0.460938"/><stop stop-opacity="1" stop-color="rgb(76.820374%, 38.633728%, 84.405518%)" offset="0.464844"/><stop stop-opacity="1" stop-color="rgb(76.615906%, 38.539124%, 84.434509%)" offset="0.46875"/><stop stop-opacity="1" stop-color="rgb(76.409912%, 38.442993%, 84.461975%)" offset="0.472656"/><stop stop-opacity="1" stop-color="rgb(76.205444%, 38.348389%, 84.490967%)" offset="0.476563"/><stop stop-opacity="1" stop-color="rgb(75.999451%, 38.252258%, 84.518433%)" offset="0.480469"/><stop stop-opacity="1" stop-color="rgb(75.794983%, 38.157654%, 84.547424%)" offset="0.484375"/><stop stop-opacity="1" stop-color="rgb(75.588989%, 38.061523%, 84.57489%)" offset="0.488281"/><stop stop-opacity="1" stop-color="rgb(75.384521%, 37.966919%, 84.603882%)" offset="0.492188"/><stop stop-opacity="1" stop-color="rgb(75.178528%, 37.872314%, 84.632874%)" offset="0.496094"/><stop stop-opacity="1" stop-color="rgb(74.97406%, 37.77771%, 84.661865%)" offset="0.5"/><stop stop-opacity="1" stop-color="rgb(74.768066%, 37.68158%, 84.689331%)" offset="0.503906"/><stop stop-opacity="1" stop-color="rgb(74.563599%, 37.586975%, 84.718323%)" offset="0.507813"/><stop stop-opacity="1" stop-color="rgb(74.357605%, 37.490845%, 84.745789%)" offset="0.511719"/><stop stop-opacity="1" stop-color="rgb(74.153137%, 37.39624%, 84.77478%)" offset="0.515625"/><stop stop-opacity="1" stop-color="rgb(73.947144%, 37.30011%, 84.802246%)" offset="0.519531"/><stop stop-opacity="1" stop-color="rgb(73.742676%, 37.205505%, 84.831238%)" offset="0.523438"/><stop stop-opacity="1" stop-color="rgb(73.536682%, 37.109375%, 84.858704%)" offset="0.527344"/><stop stop-opacity="1" stop-color="rgb(73.332214%, 37.014771%, 84.887695%)" offset="0.53125"/><stop stop-opacity="1" stop-color="rgb(73.126221%, 36.91864%, 84.916687%)" offset="0.535156"/><stop stop-opacity="1" stop-color="rgb(72.921753%, 36.824036%, 84.945679%)" offset="0.539063"/><stop stop-opacity="1" stop-color="rgb(72.715759%, 36.727905%, 84.973145%)" offset="0.542969"/><stop stop-opacity="1" stop-color="rgb(72.511292%, 36.633301%, 85.002136%)" offset="0.546875"/><stop stop-opacity="1" stop-color="rgb(72.305298%, 36.53717%, 85.029602%)" offset="0.550781"/><stop stop-opacity="1" stop-color="rgb(72.10083%, 36.442566%, 85.058594%)" offset="0.554688"/><stop stop-opacity="1" stop-color="rgb(71.894836%, 36.346436%, 85.08606%)" offset="0.558594"/><stop stop-opacity="1" stop-color="rgb(71.690369%, 36.251831%, 85.115051%)" offset="0.5625"/><stop stop-opacity="1" stop-color="rgb(71.484375%, 36.155701%, 85.142517%)" offset="0.566406"/><stop stop-opacity="1" stop-color="rgb(71.279907%, 36.061096%, 85.171509%)" offset="0.570312"/><stop stop-opacity="1" stop-color="rgb(71.073914%, 35.964966%, 85.2005%)" offset="0.574219"/><stop stop-opacity="1" stop-color="rgb(70.869446%, 35.870361%, 85.229492%)" offset="0.578125"/><stop stop-opacity="1" stop-color="rgb(70.663452%, 35.774231%, 85.256958%)" offset="0.582031"/><stop stop-opacity="1" stop-color="rgb(70.458984%, 35.679626%, 85.28595%)" offset="0.585938"/><stop stop-opacity="1" stop-color="rgb(70.252991%, 35.583496%, 85.313416%)" offset="0.589844"/><stop stop-opacity="1" stop-color="rgb(70.048523%, 35.488892%, 85.342407%)" offset="0.59375"/><stop stop-opacity="1" stop-color="rgb(69.842529%, 35.394287%, 85.369873%)" offset="0.597656"/><stop stop-opacity="1" stop-color="rgb(69.638062%, 35.299683%, 85.398865%)" offset="0.601563"/><stop stop-opacity="1" stop-color="rgb(69.432068%, 35.203552%, 85.427856%)" offset="0.605469"/><stop stop-opacity="1" stop-color="rgb(69.2276%, 35.108948%, 85.456848%)" offset="0.609375"/><stop stop-opacity="1" stop-color="rgb(69.021606%, 35.012817%, 85.484314%)" offset="0.613281"/><stop stop-opacity="1" stop-color="rgb(68.817139%, 34.918213%, 85.513306%)" offset="0.617188"/><stop stop-opacity="1" stop-color="rgb(68.611145%, 34.822083%, 85.540771%)" offset="0.621094"/><stop stop-opacity="1" stop-color="rgb(68.406677%, 34.727478%, 85.569763%)" offset="0.625"/><stop stop-opacity="1" stop-color="rgb(68.200684%, 34.631348%, 85.597229%)" offset="0.628906"/><stop stop-opacity="1" stop-color="rgb(67.996216%, 34.536743%, 85.626221%)" offset="0.632813"/><stop stop-opacity="1" stop-color="rgb(67.790222%, 34.440613%, 85.653687%)" offset="0.636719"/><stop stop-opacity="1" stop-color="rgb(67.585754%, 34.346008%, 85.682678%)" offset="0.640625"/><stop stop-opacity="1" stop-color="rgb(67.379761%, 34.249878%, 85.71167%)" offset="0.644531"/><stop stop-opacity="1" stop-color="rgb(67.175293%, 34.155273%, 85.740662%)" offset="0.648438"/><stop stop-opacity="1" stop-color="rgb(66.969299%, 34.059143%, 85.768127%)" offset="0.652344"/><stop stop-opacity="1" stop-color="rgb(66.764832%, 33.964539%, 85.797119%)" offset="0.65625"/><stop stop-opacity="1" stop-color="rgb(66.558838%, 33.868408%, 85.824585%)" offset="0.660156"/><stop stop-opacity="1" stop-color="rgb(66.35437%, 33.773804%, 85.853577%)" offset="0.664062"/><stop stop-opacity="1" stop-color="rgb(66.149902%, 33.677673%, 85.881042%)" offset="0.667969"/><stop stop-opacity="1" stop-color="rgb(65.945435%, 33.583069%, 85.910034%)" offset="0.671875"/><stop stop-opacity="1" stop-color="rgb(65.739441%, 33.486938%, 85.9375%)" offset="0.675781"/><stop stop-opacity="1" stop-color="rgb(65.534973%, 33.392334%, 85.966492%)" offset="0.679688"/><stop stop-opacity="1" stop-color="rgb(65.328979%, 33.296204%, 85.995483%)" offset="0.683594"/><stop stop-opacity="1" stop-color="rgb(65.124512%, 33.201599%, 86.024475%)" offset="0.6875"/><stop stop-opacity="1" stop-color="rgb(64.918518%, 33.105469%, 86.051941%)" offset="0.691406"/><stop stop-opacity="1" stop-color="rgb(64.71405%, 33.010864%, 86.080933%)" offset="0.695313"/><stop stop-opacity="1" stop-color="rgb(64.508057%, 32.91626%, 86.108398%)" offset="0.699219"/><stop stop-opacity="1" stop-color="rgb(64.303589%, 32.821655%, 86.13739%)" offset="0.703125"/><stop stop-opacity="1" stop-color="rgb(64.097595%, 32.725525%, 86.164856%)" offset="0.707031"/><stop stop-opacity="1" stop-color="rgb(63.893127%, 32.63092%, 86.193848%)" offset="0.710938"/><stop stop-opacity="1" stop-color="rgb(63.687134%, 32.53479%, 86.221313%)" offset="0.714844"/><stop stop-opacity="1" stop-color="rgb(63.482666%, 32.440186%, 86.250305%)" offset="0.71875"/><stop stop-opacity="1" stop-color="rgb(63.276672%, 32.344055%, 86.279297%)" offset="0.722656"/><stop stop-opacity="1" stop-color="rgb(63.072205%, 32.249451%, 86.308289%)" offset="0.726563"/><stop stop-opacity="1" stop-color="rgb(62.866211%, 32.15332%, 86.335754%)" offset="0.730469"/><stop stop-opacity="1" stop-color="rgb(62.661743%, 32.058716%, 86.364746%)" offset="0.734375"/><stop stop-opacity="1" stop-color="rgb(62.45575%, 31.962585%, 86.392212%)" offset="0.738281"/><stop stop-opacity="1" stop-color="rgb(62.251282%, 31.867981%, 86.421204%)" offset="0.742188"/><stop stop-opacity="1" stop-color="rgb(62.045288%, 31.771851%, 86.448669%)" offset="0.746094"/><stop stop-opacity="1" stop-color="rgb(61.84082%, 31.677246%, 86.477661%)" offset="0.75"/><stop stop-opacity="1" stop-color="rgb(61.634827%, 31.581116%, 86.506653%)" offset="0.753906"/><stop stop-opacity="1" stop-color="rgb(61.430359%, 31.486511%, 86.535645%)" offset="0.757813"/><stop stop-opacity="1" stop-color="rgb(61.224365%, 31.390381%, 86.56311%)" offset="0.761719"/><stop stop-opacity="1" stop-color="rgb(61.019897%, 31.295776%, 86.592102%)" offset="0.765625"/><stop stop-opacity="1" stop-color="rgb(60.813904%, 31.199646%, 86.619568%)" offset="0.769531"/><stop stop-opacity="1" stop-color="rgb(60.609436%, 31.105042%, 86.64856%)" offset="0.773438"/><stop stop-opacity="1" stop-color="rgb(60.403442%, 31.008911%, 86.676025%)" offset="0.777344"/><stop stop-opacity="1" stop-color="rgb(60.198975%, 30.914307%, 86.705017%)" offset="0.78125"/><stop stop-opacity="1" stop-color="rgb(59.992981%, 30.818176%, 86.732483%)" offset="0.785156"/><stop stop-opacity="1" stop-color="rgb(59.788513%, 30.723572%, 86.761475%)" offset="0.789063"/><stop stop-opacity="1" stop-color="rgb(59.58252%, 30.627441%, 86.790466%)" offset="0.792969"/><stop stop-opacity="1" stop-color="rgb(59.378052%, 30.532837%, 86.819458%)" offset="0.796875"/><stop stop-opacity="1" stop-color="rgb(59.172058%, 30.438232%, 86.846924%)" offset="0.800781"/><stop stop-opacity="1" stop-color="rgb(58.96759%, 30.343628%, 86.875916%)" offset="0.804688"/><stop stop-opacity="1" stop-color="rgb(58.761597%, 30.247498%, 86.903381%)" offset="0.808594"/><stop stop-opacity="1" stop-color="rgb(58.557129%, 30.152893%, 86.932373%)" offset="0.8125"/><stop stop-opacity="1" stop-color="rgb(58.351135%, 30.056763%, 86.959839%)" offset="0.816406"/><stop stop-opacity="1" stop-color="rgb(58.146667%, 29.962158%, 86.988831%)" offset="0.820312"/><stop stop-opacity="1" stop-color="rgb(57.940674%, 29.866028%, 87.016296%)" offset="0.824219"/><stop stop-opacity="1" stop-color="rgb(57.736206%, 29.771423%, 87.045288%)" offset="0.828125"/><stop stop-opacity="1" stop-color="rgb(57.530212%, 29.675293%, 87.07428%)" offset="0.832031"/><stop stop-opacity="1" stop-color="rgb(57.325745%, 29.580688%, 87.103271%)" offset="0.835938"/><stop stop-opacity="1" stop-color="rgb(57.119751%, 29.484558%, 87.130737%)" offset="0.839844"/><stop stop-opacity="1" stop-color="rgb(56.915283%, 29.389954%, 87.159729%)" offset="0.84375"/><stop stop-opacity="1" stop-color="rgb(56.70929%, 29.293823%, 87.187195%)" offset="0.847656"/><stop stop-opacity="1" stop-color="rgb(56.504822%, 29.199219%, 87.216187%)" offset="0.851563"/><stop stop-opacity="1" stop-color="rgb(56.298828%, 29.103088%, 87.243652%)" offset="0.855469"/><stop stop-opacity="1" stop-color="rgb(56.09436%, 29.008484%, 87.272644%)" offset="0.859375"/><stop stop-opacity="1" stop-color="rgb(55.888367%, 28.912354%, 87.30011%)" offset="0.863281"/><stop stop-opacity="1" stop-color="rgb(55.683899%, 28.817749%, 87.329102%)" offset="0.867188"/><stop stop-opacity="1" stop-color="rgb(55.477905%, 28.721619%, 87.358093%)" offset="0.871094"/><stop stop-opacity="1" stop-color="rgb(55.273438%, 28.627014%, 87.387085%)" offset="0.875"/><stop stop-opacity="1" stop-color="rgb(55.067444%, 28.530884%, 87.414551%)" offset="0.878906"/><stop stop-opacity="1" stop-color="rgb(54.862976%, 28.436279%, 87.443542%)" offset="0.882813"/><stop stop-opacity="1" stop-color="rgb(54.656982%, 28.340149%, 87.471008%)" offset="0.886719"/><stop stop-opacity="1" stop-color="rgb(54.452515%, 28.245544%, 87.5%)" offset="0.890625"/><stop stop-opacity="1" stop-color="rgb(54.246521%, 28.149414%, 87.527466%)" offset="0.894531"/><stop stop-opacity="1" stop-color="rgb(54.042053%, 28.05481%, 87.556458%)" offset="0.898438"/><stop stop-opacity="1" stop-color="rgb(53.83606%, 27.960205%, 87.585449%)" offset="0.902344"/><stop stop-opacity="1" stop-color="rgb(53.631592%, 27.865601%, 87.614441%)" offset="0.90625"/><stop stop-opacity="1" stop-color="rgb(53.425598%, 27.76947%, 87.641907%)" offset="0.910156"/><stop stop-opacity="1" stop-color="rgb(53.22113%, 27.674866%, 87.670898%)" offset="0.914062"/><stop stop-opacity="1" stop-color="rgb(53.015137%, 27.578735%, 87.698364%)" offset="0.917969"/><stop stop-opacity="1" stop-color="rgb(52.810669%, 27.484131%, 87.727356%)" offset="0.921875"/><stop stop-opacity="1" stop-color="rgb(52.604675%, 27.388%, 87.754822%)" offset="0.925781"/><stop stop-opacity="1" stop-color="rgb(52.400208%, 27.293396%, 87.783813%)" offset="0.929688"/><stop stop-opacity="1" stop-color="rgb(52.194214%, 27.197266%, 87.811279%)" offset="0.933594"/><stop stop-opacity="1" stop-color="rgb(51.989746%, 27.102661%, 87.840271%)" offset="0.9375"/><stop stop-opacity="1" stop-color="rgb(51.783752%, 27.006531%, 87.869263%)" offset="0.941406"/><stop stop-opacity="1" stop-color="rgb(51.579285%, 26.911926%, 87.898254%)" offset="0.945313"/><stop stop-opacity="1" stop-color="rgb(51.373291%, 26.815796%, 87.92572%)" offset="0.949219"/><stop stop-opacity="1" stop-color="rgb(51.168823%, 26.721191%, 87.954712%)" offset="0.953125"/><stop stop-opacity="1" stop-color="rgb(50.96283%, 26.625061%, 87.982178%)" offset="0.957031"/><stop stop-opacity="1" stop-color="rgb(50.758362%, 26.530457%, 88.011169%)" offset="0.960938"/><stop stop-opacity="1" stop-color="rgb(50.552368%, 26.434326%, 88.038635%)" offset="0.964844"/><stop stop-opacity="1" stop-color="rgb(50.3479%, 26.339722%, 88.067627%)" offset="0.96875"/><stop stop-opacity="1" stop-color="rgb(50.141907%, 26.243591%, 88.095093%)" offset="0.972656"/><stop stop-opacity="1" stop-color="rgb(49.937439%, 26.148987%, 88.124084%)" offset="0.976563"/><stop stop-opacity="1" stop-color="rgb(49.731445%, 26.052856%, 88.153076%)" offset="0.980469"/><stop stop-opacity="1" stop-color="rgb(49.526978%, 25.958252%, 88.182068%)" offset="0.984375"/><stop stop-opacity="1" stop-color="rgb(49.462891%, 25.927734%, 88.189697%)" offset="1"/></linearGradient><clipPath id="3048370db7"><path d="M 249 243 L 321 243 L 321 315 L 249 315 Z M 249 243 " clip-rule="nonzero"/></clipPath><clipPath id="a8298fb876"><path d="M 196.59375 172.316406 L 337.738281 191.925781 L 320.089844 318.957031 L 178.945312 299.34375 Z M 196.59375 172.316406 " clip-rule="nonzero"/></clipPath><clipPath id="195d2e4fdc"><path d="M 196.59375 172.316406 L 337.738281 191.925781 L 320.089844 318.957031 L 178.945312 299.34375 Z M 196.59375 172.316406 " clip-rule="nonzero"/></clipPath><clipPath id="a22eb91df8"><path d="M 196.59375 172.316406 L 337.738281 191.925781 L 320.089844 318.957031 L 178.945312 299.34375 Z M 196.59375 172.316406 " clip-rule="nonzero"/></clipPath><clipPath id="d8df4c8f4c"><path d="M 205 198 L 243 198 L 243 237 L 205 237 Z M 205 198 " clip-rule="nonzero"/></clipPath><clipPath id="5fb9e4614a"><path d="M 196.59375 172.316406 L 337.738281 191.925781 L 320.089844 318.957031 L 178.945312 299.34375 Z M 196.59375 172.316406 " clip-rule="nonzero"/></clipPath><clipPath id="5ccceb7b0e"><path d="M 196.59375 172.316406 L 337.738281 191.925781 L 320.089844 318.957031 L 178.945312 299.34375 Z M 196.59375 172.316406 " clip-rule="nonzero"/></clipPath><clipPath id="1e4879cbe1"><path d="M 196.59375 172.316406 L 337.738281 191.925781 L 320.089844 318.957031 L 178.945312 299.34375 Z M 196.59375 172.316406 " clip-rule="nonzero"/></clipPath><clipPath id="2afaa69354"><path d="M 250 180 L 259 180 L 259 231 L 250 231 Z M 250 180 " clip-rule="nonzero"/></clipPath><clipPath id="ffbbc6cee5"><path d="M 196.59375 172.316406 L 337.738281 191.925781 L 320.089844 318.957031 L 178.945312 299.34375 Z M 196.59375 172.316406 " clip-rule="nonzero"/></clipPath><clipPath id="3643bfcb97"><path d="M 196.59375 172.316406 L 337.738281 191.925781 L 320.089844 318.957031 L 178.945312 299.34375 Z M 196.59375 172.316406 " clip-rule="nonzero"/></clipPath><clipPath id="b9870d9591"><path d="M 196.59375 172.316406 L 337.738281 191.925781 L 320.089844 318.957031 L 178.945312 299.34375 Z M 196.59375 172.316406 " clip-rule="nonzero"/></clipPath><clipPath id="d3e4c73327"><path d="M 265 199 L 304 199 L 304 237 L 265 237 Z M 265 199 " clip-rule="nonzero"/></clipPath><clipPath id="9057a83572"><path d="M 196.59375 172.316406 L 337.738281 191.925781 L 320.089844 318.957031 L 178.945312 299.34375 Z M 196.59375 172.316406 " clip-rule="nonzero"/></clipPath><clipPath id="8e4753da37"><path d="M 196.59375 172.316406 L 337.738281 191.925781 L 320.089844 318.957031 L 178.945312 299.34375 Z M 196.59375 172.316406 " clip-rule="nonzero"/></clipPath><clipPath id="03c3c4a557"><path d="M 196.59375 172.316406 L 337.738281 191.925781 L 320.089844 318.957031 L 178.945312 299.34375 Z M 196.59375 172.316406 " clip-rule="nonzero"/></clipPath><clipPath id="e57640aa5a"><path d="M 204 259 L 243 259 L 243 297 L 204 297 Z M 204 259 " clip-rule="nonzero"/></clipPath><clipPath id="eecef8b91e"><path d="M 196.59375 172.316406 L 337.738281 191.925781 L 320.089844 318.957031 L 178.945312 299.34375 Z M 196.59375 172.316406 " clip-rule="nonzero"/></clipPath><clipPath id="983b5b72aa"><path d="M 196.59375 172.316406 L 337.738281 191.925781 L 320.089844 318.957031 L 178.945312 299.34375 Z M 196.59375 172.316406 " clip-rule="nonzero"/></clipPath><clipPath id="2760e43f17"><path d="M 196.59375 172.316406 L 337.738281 191.925781 L 320.089844 318.957031 L 178.945312 299.34375 Z M 196.59375 172.316406 " clip-rule="nonzero"/></clipPath><clipPath id="2e4268d0e9"><path d="M 186 243 L 237 243 L 237 252 L 186 252 Z M 186 243 " clip-rule="nonzero"/></clipPath><clipPath id="21fa145348"><path d="M 196.59375 172.316406 L 337.738281 191.925781 L 320.089844 318.957031 L 178.945312 299.34375 Z M 196.59375 172.316406 " clip-rule="nonzero"/></clipPath><clipPath id="feab2e1e56"><path d="M 196.59375 172.316406 L 337.738281 191.925781 L 320.089844 318.957031 L 178.945312 299.34375 Z M 196.59375 172.316406 " clip-rule="nonzero"/></clipPath><clipPath id="48d56b9c38"><path d="M 196.59375 172.316406 L 337.738281 191.925781 L 320.089844 318.957031 L 178.945312 299.34375 Z M 196.59375 172.316406 " clip-rule="nonzero"/></clipPath></defs><rect x="-37.5" width="450" fill="#ffffff" y="-37.499999" height="449.999989" fill-opacity="1"/><rect x="-37.5" width="450" fill="#ffffff" y="-37.499999" height="449.999989" fill-opacity="1"/><rect x="-37.5" width="450" fill="#000000" y="-37.499999" height="449.999989" fill-opacity="1"/><g clip-path="url(#eb623b4974)"><g clip-path="url(#f81935d2e5)"><path fill="url(#c3620326b0)" d="M 68.507812 55.808594 L 68.507812 288.972656 L 301.007812 288.972656 L 301.007812 55.808594 Z M 68.507812 55.808594 " fill-rule="nonzero"/></g></g><g clip-path="url(#3048370db7)"><g clip-path="url(#a8298fb876)"><g clip-path="url(#195d2e4fdc)"><g clip-path="url(#a22eb91df8)"><path fill="#ffffff" d="M 318.277344 300.90625 L 299.472656 282.035156 L 313.8125 275.320312 C 319.332031 272.738281 317.75 264.1875 311.351562 262.015625 L 287.5625 253.933594 L 258.085938 243.917969 C 252.660156 242.078125 248.144531 246.542969 249.953125 251.957031 L 259.792969 281.394531 L 267.730469 305.148438 C 269.863281 311.535156 278.433594 313.171875 281.070312 307.695312 L 287.917969 293.460938 L 306.722656 312.332031 C 309.894531 315.515625 315.050781 315.535156 318.242188 312.378906 C 321.433594 309.226562 321.449219 304.085938 318.277344 300.90625 " fill-opacity="1" fill-rule="nonzero"/></g></g></g></g><g clip-path="url(#d8df4c8f4c)"><g clip-path="url(#5fb9e4614a)"><g clip-path="url(#5ccceb7b0e)"><g clip-path="url(#1e4879cbe1)"><path fill="#ffffff" d="M 206.226562 205.398438 L 236.3125 235.585938 C 237.796875 237.074219 240.234375 237.085938 241.730469 235.609375 C 243.226562 234.128906 243.234375 231.699219 241.746094 230.210938 L 211.664062 200.023438 C 210.179688 198.53125 207.738281 198.523438 206.246094 200 C 204.75 201.480469 204.742188 203.90625 206.226562 205.398438 " fill-opacity="1" fill-rule="nonzero"/></g></g></g></g><g clip-path="url(#2afaa69354)"><g clip-path="url(#ffbbc6cee5)"><g clip-path="url(#3643bfcb97)"><g clip-path="url(#b9870d9591)"><path fill="#ffffff" d="M 254.0625 230.753906 C 256.171875 230.761719 257.898438 229.050781 257.90625 226.953125 L 258.039062 184.441406 C 258.046875 182.34375 256.328125 180.617188 254.21875 180.609375 C 252.113281 180.597656 250.382812 182.3125 250.375 184.410156 L 250.242188 226.917969 C 250.234375 229.019531 251.957031 230.742188 254.0625 230.753906 " fill-opacity="1" fill-rule="nonzero"/></g></g></g></g><g clip-path="url(#d3e4c73327)"><g clip-path="url(#9057a83572)"><g clip-path="url(#8e4753da37)"><g clip-path="url(#03c3c4a557)"><path fill="#ffffff" d="M 266.363281 235.710938 C 267.851562 237.203125 270.289062 237.214844 271.785156 235.734375 L 302.054688 205.800781 C 303.550781 204.324219 303.558594 201.894531 302.074219 200.40625 C 300.585938 198.914062 298.148438 198.902344 296.652344 200.382812 L 266.378906 230.3125 C 264.886719 231.792969 264.878906 234.222656 266.363281 235.710938 " fill-opacity="1" fill-rule="nonzero"/></g></g></g></g><g clip-path="url(#e57640aa5a)"><g clip-path="url(#eecef8b91e)"><g clip-path="url(#983b5b72aa)"><g clip-path="url(#2760e43f17)"><path fill="#ffffff" d="M 241.652344 260.144531 C 240.167969 258.652344 237.730469 258.640625 236.234375 260.121094 L 205.960938 290.054688 C 204.46875 291.53125 204.460938 293.960938 205.945312 295.449219 C 207.429688 296.941406 209.871094 296.953125 211.367188 295.472656 L 241.636719 265.542969 C 243.132812 264.0625 243.140625 261.632812 241.652344 260.144531 " fill-opacity="1" fill-rule="nonzero"/></g></g></g></g><g clip-path="url(#2e4268d0e9)"><g clip-path="url(#21fa145348)"><g clip-path="url(#feab2e1e56)"><g clip-path="url(#48d56b9c38)"><path fill="#ffffff" d="M 236.765625 247.855469 C 236.773438 245.753906 235.054688 244.03125 232.945312 244.023438 L 190.269531 243.84375 C 188.160156 243.832031 186.429688 245.542969 186.425781 247.644531 C 186.417969 249.742188 188.136719 251.464844 190.242188 251.476562 L 232.921875 251.65625 C 235.03125 251.664062 236.757812 249.953125 236.765625 247.855469 " fill-opacity="1" fill-rule="nonzero"/></g></g></g></g><g fill="#ffffff" fill-opacity="1"><g transform="translate(37.500002, 164.255499)"><g><path d="M 65.046875 -53.046875 C 66.242188 -53.046875 67.359375 -52.578125 68.390625 -51.640625 C 69.421875 -50.710938 69.9375 -49.546875 69.9375 -48.140625 C 69.9375 -47.679688 69.863281 -47.175781 69.71875 -46.625 L 54.859375 -2.875 C 54.554688 -2.007812 54.023438 -1.328125 53.265625 -0.828125 C 52.515625 -0.328125 51.6875 -0.0507812 50.78125 0 C 49.875 0 49.015625 -0.25 48.203125 -0.75 C 47.398438 -1.257812 46.773438 -1.988281 46.328125 -2.9375 L 35.609375 -27.3125 L 24.828125 -2.9375 C 24.367188 -1.988281 23.738281 -1.257812 22.9375 -0.75 C 22.132812 -0.25 21.28125 0 20.375 0 C 19.46875 -0.0507812 18.632812 -0.328125 17.875 -0.828125 C 17.125 -1.328125 16.597656 -2.007812 16.296875 -2.875 L 1.4375 -46.625 C 1.28125 -47.175781 1.203125 -47.679688 1.203125 -48.140625 C 1.203125 -49.546875 1.71875 -50.710938 2.75 -51.640625 C 3.78125 -52.578125 4.925781 -53.046875 6.1875 -53.046875 C 7.195312 -53.046875 8.101562 -52.78125 8.90625 -52.25 C 9.707031 -51.71875 10.257812 -51 10.5625 -50.09375 L 21.8125 -16 L 31.609375 -39.53125 C 32.015625 -40.4375 32.59375 -41.15625 33.34375 -41.6875 C 34.101562 -42.21875 34.960938 -42.457031 35.921875 -42.40625 C 36.867188 -42.457031 37.707031 -42.21875 38.4375 -41.6875 C 39.164062 -41.15625 39.734375 -40.4375 40.140625 -39.53125 L 49.421875 -16.21875 L 60.59375 -50.09375 C 60.894531 -51 61.457031 -51.71875 62.28125 -52.25 C 63.113281 -52.78125 64.035156 -53.046875 65.046875 -53.046875 Z M 65.046875 -53.046875 "/></g></g></g><g fill="#ffffff" fill-opacity="1"><g transform="translate(108.649446, 164.255499)"><g><path d="M 41.125 -21.125 C 41.070312 -19.914062 40.59375 -18.929688 39.6875 -18.171875 C 38.78125 -17.421875 37.722656 -17.046875 36.515625 -17.046875 L 11.625 -17.046875 C 12.226562 -14.078125 13.609375 -11.75 15.765625 -10.0625 C 17.929688 -8.382812 20.375 -7.546875 23.09375 -7.546875 C 25.15625 -7.546875 26.765625 -7.734375 27.921875 -8.109375 C 29.078125 -8.484375 29.992188 -8.882812 30.671875 -9.3125 C 31.347656 -9.738281 31.8125 -10.03125 32.0625 -10.1875 C 32.96875 -10.632812 33.828125 -10.859375 34.640625 -10.859375 C 35.691406 -10.859375 36.59375 -10.484375 37.34375 -9.734375 C 38.101562 -8.984375 38.484375 -8.101562 38.484375 -7.09375 C 38.484375 -5.738281 37.78125 -4.503906 36.375 -3.390625 C 34.957031 -2.234375 33.066406 -1.253906 30.703125 -0.453125 C 28.335938 0.347656 25.953125 0.75 23.546875 0.75 C 19.316406 0.75 15.628906 -0.128906 12.484375 -1.890625 C 9.335938 -3.648438 6.910156 -6.078125 5.203125 -9.171875 C 3.492188 -12.265625 2.640625 -15.75 2.640625 -19.625 C 2.640625 -23.945312 3.546875 -27.742188 5.359375 -31.015625 C 7.171875 -34.285156 9.5625 -36.785156 12.53125 -38.515625 C 15.5 -40.253906 18.664062 -41.125 22.03125 -41.125 C 25.351562 -41.125 28.484375 -40.21875 31.421875 -38.40625 C 34.367188 -36.59375 36.722656 -34.148438 38.484375 -31.078125 C 40.242188 -28.015625 41.125 -24.695312 41.125 -21.125 Z M 22.03125 -32.828125 C 16.195312 -32.828125 12.75 -30.082031 11.6875 -24.59375 L 31.46875 -24.59375 L 31.46875 -25.125 C 31.257812 -27.238281 30.222656 -29.050781 28.359375 -30.5625 C 26.503906 -32.070312 24.394531 -32.828125 22.03125 -32.828125 Z M 22.03125 -32.828125 "/></g></g></g><g fill="#ffffff" fill-opacity="1"><g transform="translate(152.410498, 164.255499)"><g><path d="M 26.484375 -41.125 C 31.617188 -41.125 35.164062 -39.597656 37.125 -36.546875 C 39.082031 -33.503906 40.0625 -29.296875 40.0625 -23.921875 L 40.0625 -4.609375 C 40.0625 -3.296875 39.632812 -2.195312 38.78125 -1.3125 C 37.925781 -0.4375 36.84375 0 35.53125 0 C 34.226562 0 33.148438 -0.4375 32.296875 -1.3125 C 31.441406 -2.195312 31.015625 -3.296875 31.015625 -4.609375 L 31.015625 -23.921875 C 31.015625 -26.679688 30.4375 -28.851562 29.28125 -30.4375 C 28.125 -32.03125 26.132812 -32.828125 23.3125 -32.828125 C 20.394531 -32.828125 18.101562 -31.984375 16.4375 -30.296875 C 14.78125 -28.609375 13.953125 -26.484375 13.953125 -23.921875 L 13.953125 -4.609375 C 13.953125 -3.296875 13.523438 -2.195312 12.671875 -1.3125 C 11.816406 -0.4375 10.738281 0 9.4375 0 C 8.125 0 7.039062 -0.4375 6.1875 -1.3125 C 5.332031 -2.195312 4.90625 -3.296875 4.90625 -4.609375 L 4.90625 -35.765625 C 4.90625 -37.066406 5.332031 -38.160156 6.1875 -39.046875 C 7.039062 -39.929688 8.125 -40.375 9.4375 -40.375 C 10.738281 -40.375 11.816406 -39.929688 12.671875 -39.046875 C 13.523438 -38.160156 13.953125 -37.066406 13.953125 -35.765625 L 13.953125 -34.484375 C 15.316406 -36.296875 17.09375 -37.851562 19.28125 -39.15625 C 21.46875 -40.46875 23.867188 -41.125 26.484375 -41.125 Z M 26.484375 -41.125 "/></g></g></g><g fill="#ffffff" fill-opacity="1"><g transform="translate(197.378755, 164.255499)"><g><path d="M 28.296875 -52.8125 C 33.023438 -52.8125 37.085938 -51.640625 40.484375 -49.296875 C 43.878906 -46.960938 46.46875 -43.796875 48.25 -39.796875 C 50.039062 -35.796875 50.9375 -31.332031 50.9375 -26.40625 C 50.9375 -21.476562 50.039062 -17.015625 48.25 -13.015625 C 46.46875 -9.015625 43.878906 -5.84375 40.484375 -3.5 C 37.085938 -1.164062 33.023438 0 28.296875 0 L 10.265625 0 C 8.953125 0 7.851562 -0.4375 6.96875 -1.3125 C 6.09375 -2.195312 5.65625 -3.296875 5.65625 -4.609375 L 5.65625 -48.21875 C 5.65625 -49.519531 6.09375 -50.609375 6.96875 -51.484375 C 7.851562 -52.367188 8.953125 -52.8125 10.265625 -52.8125 Z M 27.546875 -8.671875 C 32.066406 -8.671875 35.457031 -10.34375 37.71875 -13.6875 C 39.988281 -17.039062 41.125 -21.28125 41.125 -26.40625 C 41.125 -31.539062 39.976562 -35.78125 37.6875 -39.125 C 35.394531 -42.46875 32.015625 -44.140625 27.546875 -44.140625 L 15.09375 -44.140625 L 15.09375 -8.671875 Z M 27.546875 -8.671875 "/></g></g></g><g fill="#ffffff" fill-opacity="1"><g transform="translate(251.325576, 164.255499)"><g><path d="M 41.125 -21.125 C 41.070312 -19.914062 40.59375 -18.929688 39.6875 -18.171875 C 38.78125 -17.421875 37.722656 -17.046875 36.515625 -17.046875 L 11.625 -17.046875 C 12.226562 -14.078125 13.609375 -11.75 15.765625 -10.0625 C 17.929688 -8.382812 20.375 -7.546875 23.09375 -7.546875 C 25.15625 -7.546875 26.765625 -7.734375 27.921875 -8.109375 C 29.078125 -8.484375 29.992188 -8.882812 30.671875 -9.3125 C 31.347656 -9.738281 31.8125 -10.03125 32.0625 -10.1875 C 32.96875 -10.632812 33.828125 -10.859375 34.640625 -10.859375 C 35.691406 -10.859375 36.59375 -10.484375 37.34375 -9.734375 C 38.101562 -8.984375 38.484375 -8.101562 38.484375 -7.09375 C 38.484375 -5.738281 37.78125 -4.503906 36.375 -3.390625 C 34.957031 -2.234375 33.066406 -1.253906 30.703125 -0.453125 C 28.335938 0.347656 25.953125 0.75 23.546875 0.75 C 19.316406 0.75 15.628906 -0.128906 12.484375 -1.890625 C 9.335938 -3.648438 6.910156 -6.078125 5.203125 -9.171875 C 3.492188 -12.265625 2.640625 -15.75 2.640625 -19.625 C 2.640625 -23.945312 3.546875 -27.742188 5.359375 -31.015625 C 7.171875 -34.285156 9.5625 -36.785156 12.53125 -38.515625 C 15.5 -40.253906 18.664062 -41.125 22.03125 -41.125 C 25.351562 -41.125 28.484375 -40.21875 31.421875 -38.40625 C 34.367188 -36.59375 36.722656 -34.148438 38.484375 -31.078125 C 40.242188 -28.015625 41.125 -24.695312 41.125 -21.125 Z M 22.03125 -32.828125 C 16.195312 -32.828125 12.75 -30.082031 11.6875 -24.59375 L 31.46875 -24.59375 L 31.46875 -25.125 C 31.257812 -27.238281 30.222656 -29.050781 28.359375 -30.5625 C 26.503906 -32.070312 24.394531 -32.828125 22.03125 -32.828125 Z M 22.03125 -32.828125 "/></g></g></g><g fill="#ffffff" fill-opacity="1"><g transform="translate(295.086628, 164.255499)"><g><path d="M 35.921875 -40.296875 C 37.117188 -40.296875 38.117188 -39.90625 38.921875 -39.125 C 39.734375 -38.34375 40.140625 -37.375 40.140625 -36.21875 C 40.140625 -35.613281 39.9375 -34.859375 39.53125 -33.953125 L 25.421875 -2.875 C 25.078125 -2.007812 24.5625 -1.328125 23.875 -0.828125 C 23.195312 -0.328125 22.429688 -0.0507812 21.578125 0 L 20.90625 0.078125 C 20.050781 0.078125 19.253906 -0.1875 18.515625 -0.71875 C 17.785156 -1.25 17.222656 -1.96875 16.828125 -2.875 L 2.796875 -33.953125 C 2.441406 -34.753906 2.265625 -35.5625 2.265625 -36.375 C 2.265625 -37.375 2.691406 -38.289062 3.546875 -39.125 C 4.398438 -39.957031 5.457031 -40.375 6.71875 -40.375 C 7.675781 -40.375 8.554688 -40.117188 9.359375 -39.609375 C 10.160156 -39.109375 10.765625 -38.40625 11.171875 -37.5 L 21.578125 -13.65625 L 31.921875 -37.421875 C 32.316406 -38.378906 32.867188 -39.109375 33.578125 -39.609375 C 34.285156 -40.117188 35.066406 -40.347656 35.921875 -40.296875 Z M 35.921875 -40.296875 "/></g></g></g></svg>